<svg width="173" height="174" viewBox="0 0 173 174" fill="none" xmlns="http://www.w3.org/2000/svg">
<path d="M86.5 173.256C134.273 173.256 173 134.529 173 86.7564C173 38.9838 134.273 0.256409 86.5 0.256409C38.7274 0.256409 0 38.9838 0 86.7564C0 134.529 38.7274 173.256 86.5 173.256Z" fill="#FAD52D"/>
<path d="M86.4982 0.261047V173.257C134.27 173.257 172.996 134.531 172.996 86.7593C172.996 38.9874 134.27 0.261047 86.4982 0.261047Z" fill="#E3C129"/>
<path d="M86.5 154.917C124.144 154.917 154.661 124.4 154.661 86.7564C154.661 49.1124 124.144 18.5959 86.5 18.5959C48.8559 18.5959 18.3394 49.1124 18.3394 86.7564C18.3394 124.4 48.8559 154.917 86.5 154.917Z" fill="#FAE246"/>
<path d="M83.3062 124.41C69.8654 123.963 58.8887 117.017 58.8887 109.849C58.8887 106.04 62.248 100.44 66.5049 100.44C71.2091 100.44 75.0169 107.049 83.3056 108.505V90.36C73.0007 86.4393 60.9037 81.6234 60.9037 67.2862C60.9037 53.0613 71.4325 46.228 83.3056 44.5486V41.4121C83.3056 39.8438 85.0978 38.3878 87.5619 38.3878C89.6898 38.3878 91.8176 39.8444 91.8176 41.4121V44.2124C98.7625 44.4364 111.867 46.228 111.867 53.9565C111.867 56.9808 109.851 63.1404 104.922 63.1404C101.225 63.1404 99.0982 59.5565 91.8171 58.9964V75.3497C102.01 79.1581 113.883 84.422 113.883 99.5427C113.883 113.432 104.922 121.832 91.8171 123.961V127.208C91.8171 128.777 89.6886 130.233 87.5613 130.233C85.0967 130.233 83.305 128.776 83.305 127.208V124.41H83.3062ZM84.4265 72.6629V59.3343C79.3855 60.3424 77.2582 62.9188 77.2582 65.6062C77.2576 68.8545 80.1696 70.8701 84.4265 72.6629ZM90.6984 93.3836V108.393C94.5068 107.497 97.5305 105.369 97.5305 101.337C97.5311 97.6405 94.7314 95.2881 90.6984 93.3836Z" fill="#D6B41A"/>
</svg>
