<svg width="500" height="500" viewBox="0 0 500 500" fill="none" xmlns="http://www.w3.org/2000/svg">
<g clip-path="url(#clip0_409_47)">
<path d="M497.006 217.81C498.333 228.209 499.002 238.768 499.002 249.497C499.002 252.99 498.912 256.483 498.753 259.976L249.711 249.497L496.966 217.81H497.006Z" fill="#FF0000"/>
<path d="M249.711 249.497L498.753 259.976C498.214 274.378 496.377 288.46 493.423 302.093L249.711 249.537H249.631H249.621L249.591 249.497H249.711V249.497Z" fill="black"/>
<path d="M497.006 217.81H496.966L249.711 249.497L249.591 249.487L249.621 249.457L249.641 249.447L488.064 176.392H488.104C492.226 189.745 495.22 203.588 497.006 217.81Z" fill="black"/>
<path d="M493.423 302.103L249.711 249.537L493.423 302.093V302.103Z" fill="#FF0000"/>
<path d="M493.423 302.103C490.479 316.085 486.317 329.628 481.078 342.593L480.998 342.553L249.711 249.537L493.423 302.103V302.103Z" fill="#FF0000"/>
<path d="M488.104 176.392H488.064L249.641 249.447L472.345 137.179H472.385C475.938 144.215 479.172 151.441 482.046 158.837C484.281 164.595 486.307 170.444 488.104 176.392Z" fill="#FF0000"/>
<path d="M472.385 137.179C475.948 144.215 479.172 151.441 482.046 158.837C479.172 151.441 475.938 144.215 472.385 137.179Z" fill="#FF0000"/>
<path d="M480.998 342.563L481.078 342.603C475.798 355.797 469.391 368.392 462.036 380.318H461.986L249.681 249.587L249.671 249.577L249.631 249.537H249.711L480.998 342.563V342.563Z" fill="black"/>
<path d="M471.168 134.804C471.577 135.593 471.985 136.381 472.385 137.179H472.345L249.641 249.447L249.621 249.457V249.417V249.407L450.14 101.081C454.012 106.301 457.695 111.69 461.148 117.229C462.844 119.934 464.491 122.688 466.077 125.463C466.077 125.463 466.088 125.463 466.088 125.473C466.966 127.01 467.823 128.556 468.673 130.103C468.673 130.103 468.683 130.103 468.683 130.113C469.521 131.67 470.359 133.237 471.168 134.804Z" fill="black"/>
<path d="M462.036 380.318V380.328C454.591 392.434 446.158 403.861 436.786 414.46L436.746 414.42L249.681 249.587L461.986 380.318H462.036V380.318Z" fill="#FF0000"/>
<path d="M450.14 101.081L249.621 249.407V249.367V249.357L422.156 69.4335L422.236 69.3537C423.513 70.5813 424.77 71.8088 426.018 73.0564C434.751 81.799 442.794 91.1505 450.14 101.081V101.081Z" fill="#FF0000"/>
<path d="M436.786 414.46V414.47C433.293 418.423 429.681 422.275 425.938 425.998C425.309 426.627 424.681 427.245 424.052 427.864C418.382 433.404 412.445 438.672 406.267 443.653L249.541 249.547V249.537V249.497H249.581L249.621 249.537H249.631L249.671 249.577L249.681 249.587L436.746 414.42L436.786 414.46V414.46Z" fill="black"/>
<path d="M422.236 69.3437C423.513 70.5713 424.78 71.8088 426.018 73.0564C424.77 71.8088 423.513 70.5813 422.236 69.3537V69.3437V69.3437Z" fill="#FF0000"/>
<path d="M422.226 69.3537H422.236L422.156 69.4337V69.4237L422.226 69.3537Z" fill="black"/>
<path d="M422.226 69.3537L422.156 69.4235V69.4335L249.621 249.357V249.327L389.222 42.8661L389.301 42.7464C390.02 43.2254 390.729 43.7145 391.447 44.2135C397.285 48.2455 402.944 52.527 408.402 57.0381C409.759 58.1658 411.107 59.3036 412.445 60.4513C414.451 62.1779 416.426 63.9444 418.372 65.7309C419.671 66.9285 420.958 68.1261 422.226 69.3537V69.3537Z" fill="black"/>
<path d="M249.541 249.547L406.267 443.653C401.487 447.545 396.547 451.248 391.487 454.761C387.145 457.765 382.704 460.64 378.154 463.364C376.636 464.272 375.11 465.17 373.573 466.038C372.803 466.477 372.036 466.917 371.257 467.347H371.247L371.218 467.317L249.551 249.648L249.541 249.618V249.608V249.547V249.547Z" fill="#FF0000"/>
<path d="M389.301 42.7364C390.02 43.2254 390.739 43.7145 391.447 44.2135C390.728 43.7145 390.019 43.2254 389.301 42.7464V42.7364Z" fill="black"/>
<path d="M389.301 42.7364V42.7464C388.573 42.2573 387.844 41.7583 387.116 41.2793C387.854 41.7583 388.573 42.2474 389.301 42.7364V42.7364Z" fill="#FF0000"/>
<path d="M389.301 42.7464L389.222 42.8661L249.621 249.327L352.335 22.1571V22.1472L352.375 22.0773C360.459 25.74 368.313 29.812 375.918 34.2831C378.194 35.6205 380.439 36.9878 382.676 38.395C382.676 38.405 382.676 38.405 382.686 38.405C384.162 39.3431 385.64 40.3012 387.107 41.2693C387.107 41.2693 387.107 41.2693 387.117 41.2793C387.844 41.7583 388.573 42.2573 389.301 42.7464V42.7464Z" fill="#FF0000"/>
<path d="M382.685 38.405C384.172 39.3431 385.649 40.2912 387.106 41.2693C385.639 40.3012 384.162 39.3431 382.685 38.405Z" fill="#FF0000"/>
<path d="M375.918 34.2831C378.194 35.6105 380.449 36.9878 382.676 38.395C380.439 36.9878 378.194 35.6205 375.918 34.2831Z" fill="#FF0000"/>
<path d="M371.247 467.346L371.257 467.356C360.529 473.404 349.281 478.643 337.615 483.025C349.281 478.633 360.519 473.394 371.247 467.346Z" fill="black"/>
<path d="M371.218 467.316L371.247 467.346C360.519 473.394 349.281 478.633 337.615 483.025C336.776 483.334 335.938 483.643 335.1 483.953C334.271 484.252 333.422 484.553 332.584 484.851L249.55 249.647L371.218 467.316V467.316Z" fill="black"/>
<path d="M352.375 22.0673V22.0773C349.98 20.9894 347.555 19.9415 345.12 18.9335C347.555 19.9415 349.98 20.9894 352.375 22.0673Z" fill="black"/>
<path d="M352.375 22.0773L352.335 22.1472V22.1571L249.621 249.327V249.357V249.367H249.581L312.375 8.01514V7.97522C315.838 8.86346 319.271 9.83154 322.666 10.8695C325.221 11.6479 327.746 12.4663 330.259 13.3246C334.451 14.7618 338.583 16.2987 342.675 17.9355C343.492 18.2648 344.301 18.5942 345.12 18.9335C347.555 19.9415 349.98 20.9894 352.375 22.0773V22.0773Z" fill="black"/>
<path d="M330.259 13.3246C334.451 14.7518 338.583 16.2888 342.675 17.9355C338.583 16.2987 334.451 14.7618 330.259 13.3246Z" fill="black"/>
<path d="M335.101 483.953C334.272 484.263 333.423 484.562 332.585 484.861V484.851C333.423 484.553 334.271 484.252 335.101 483.953V483.953Z" fill="black"/>
<path d="M332.585 484.851V484.861C320.23 489.232 307.465 492.606 294.301 494.961C307.475 492.596 320.23 489.222 332.585 484.851Z" fill="#FF0000"/>
<path d="M249.551 249.648L332.585 484.852C320.23 489.223 307.475 492.597 294.301 494.962C293.423 495.122 292.545 495.271 291.667 495.421V495.341L249.551 249.648V249.648Z" fill="#FF0000"/>
<path d="M322.666 10.8695C325.221 11.648 327.746 12.4663 330.26 13.3246C327.745 12.4663 325.22 11.648 322.666 10.8695Z" fill="black"/>
<path d="M312.375 7.97523V8.01514L249.581 249.367V249.407H249.541V249.247L270.669 0.949137V0.869293C279.611 1.62779 288.404 2.85536 297.036 4.51208C299.621 5.01109 302.196 5.55002 304.75 6.12888C307.305 6.70773 309.85 7.31653 312.375 7.97523V7.97523Z" fill="#FF0000"/>
<path d="M297.036 4.51208C299.621 5.0111 302.196 5.55002 304.75 6.12888C302.196 5.55002 299.621 5.0111 297.036 4.51208Z" fill="#FF0000"/>
<path d="M270.669 0.859314C279.611 1.61781 288.404 2.84539 297.036 4.51209C288.404 2.85537 279.611 1.62779 270.669 0.869296V0.859314V0.859314Z" fill="#FF0000"/>
<path d="M291.667 495.34V495.42C290.808 495.57 289.95 495.71 289.092 495.849C279.691 497.367 270.1 498.344 260.349 498.763C260.279 498.774 260.21 498.774 260.14 498.774C256.617 498.923 253.064 498.994 249.501 498.994V249.837V249.827V249.658V249.618H249.541L249.551 249.648L291.667 495.34V495.34Z" fill="black"/>
<path d="M270.669 0.869291V0.949134L249.541 249.247L228.333 0.949134V0.939152V0.869291C235.319 0.280457 242.395 0.00100708 249.501 0.00100708C256.657 0.00100708 263.683 0.290437 270.669 0.869291V0.869291Z" fill="#006600"/>
<path d="M249.591 249.497V249.487L249.711 249.497H249.591Z" fill="black"/>
<path d="M249.621 249.417H249.581V249.457H249.621V249.417Z" fill="#FF0000"/>
<path d="M249.621 249.407H249.581V249.417H249.621V249.407Z" fill="#FF0000"/>
<path d="M249.621 249.367H249.581V249.407H249.621V249.367Z" fill="#FF0000"/>
<path d="M249.581 249.457H249.621L249.591 249.487H249.581V249.457Z" fill="#FF0000"/>
<path d="M249.621 249.537L249.581 249.497H249.591L249.621 249.537Z" fill="black"/>
<path d="M249.591 249.487H249.581V249.497H249.591V249.487Z" fill="#FF0000"/>
<path d="M249.581 249.487H249.541V249.497H249.581V249.487Z" fill="#FF0000"/>
<path d="M249.581 249.457H249.541V249.487H249.581V249.457Z" fill="#FF0000"/>
<path d="M249.581 249.417H249.541V249.457H249.581V249.417Z" fill="black"/>
<path d="M249.581 249.407H249.541V249.417H249.581V249.407Z" fill="black"/>
<path d="M249.541 249.537H249.501V249.547H249.541V249.537Z" fill="black"/>
<path d="M249.541 249.607H249.501V249.617H249.541V249.607Z" fill="black"/>
<path d="M249.501 249.607V249.577V249.547H249.541V249.607H249.501Z" fill="black"/>
<path d="M249.541 249.497H249.501V249.537H249.541V249.497Z" fill="#FF0000"/>
<path d="M249.501 249.497V249.457H249.541V249.487V249.497H249.501Z" fill="#FF0000"/>
<path d="M249.541 249.417V249.457H249.501L249.461 249.367L146.707 22.1571L146.667 22.0773C153.044 19.183 159.591 16.5582 166.257 14.2029C167.924 13.6141 169.601 13.0452 171.287 12.4863C172.136 12.2068 172.974 11.9374 173.822 11.6679C175.519 11.129 177.226 10.61 178.932 10.111C179.78 9.86148 180.639 9.61198 181.497 9.37245C183.214 8.8934 184.94 8.42433 186.667 7.9852V8.01514L249.541 249.407V249.417V249.417Z" fill="#FF0000"/>
<path d="M249.541 249.247V249.407L186.667 8.01514V7.9852V7.97523C196.776 5.35042 207.136 3.34439 217.705 1.99706C219.461 1.77749 221.228 1.56791 223.004 1.37829C224.77 1.18866 226.557 1.019 228.333 0.869293V0.939155V0.949137L249.541 249.247V249.247Z" fill="black"/>
<path d="M249.501 498.993V499.003C235.15 499.003 221.058 497.795 207.375 495.43V495.35V495.34L249.501 249.836V498.993Z" fill="#FF0000"/>
<path d="M249.501 249.826V249.836L207.375 495.34V495.35V495.43C193.283 493.095 179.601 489.532 166.457 484.871V484.861L249.501 249.657V249.826Z" fill="black"/>
<path d="M249.501 249.617V249.657L166.457 484.861C155.509 480.999 144.92 476.408 134.76 471.128C132.405 469.91 130.09 468.653 127.784 467.356L127.824 467.316L249.501 249.617Z" fill="#FF0000"/>
<path d="M249.501 249.607V249.617L127.824 467.316L127.784 467.356C125.459 466.058 123.164 464.731 120.888 463.374C119.371 462.465 117.864 461.537 116.377 460.6C111.148 457.306 106.058 453.823 101.108 450.15C99.7006 449.102 98.2934 448.034 96.9062 446.956C95.519 445.868 94.1417 444.78 92.7745 443.663V443.653L249.501 249.577V249.607Z" fill="black"/>
<path d="M249.501 249.547V249.577L92.7745 443.653C85.8782 438.124 79.3214 432.225 73.0838 425.998C71.2076 424.132 69.3713 422.235 67.5749 420.32C65.7685 418.394 63.992 416.437 62.2455 414.461L62.2854 414.421L249.371 249.628L249.451 249.568L249.471 249.558H249.481L249.501 249.547V249.547Z" fill="#FF0000"/>
<path d="M249.481 249.547L249.501 249.537V249.547L249.481 249.558V249.547Z" fill="black"/>
<path d="M249.501 249.497V249.537L249.481 249.547L18.0439 342.563L17.9241 342.603C15.9681 337.732 14.1617 332.792 12.505 327.772C9.74052 319.409 7.41517 310.846 5.56886 302.113V302.103L249.441 249.497H249.461H249.501V249.497Z" fill="black"/>
<path d="M249.501 249.457H249.461V249.497H249.501V249.457Z" fill="black"/>
<path d="M249.461 249.367L249.501 249.457H249.461L48.9022 101.081C57.2655 89.7333 66.6168 79.1243 76.8064 69.3537L76.8862 69.4335L249.461 249.367V249.367Z" fill="black"/>
<path d="M249.481 249.558H249.471L249.481 249.547V249.558Z" fill="black"/>
<path d="M249.451 249.567L249.431 249.577L18.0439 342.563L249.481 249.547L249.471 249.558L249.451 249.567Z" fill="#FF0000"/>
<path d="M249.461 249.457V249.497H249.441L2.07585 217.81H1.99601C3.56287 205.364 6.0479 193.208 9.4012 181.392C9.88024 179.715 10.3792 178.029 10.8982 176.362L10.978 176.392L249.411 249.457H249.461V249.457Z" fill="#FF0000"/>
<path d="M146.707 22.1571L249.461 249.367L109.78 42.8661L109.701 42.7863C119.162 36.369 129.092 30.5904 139.431 25.4905C141.826 24.3129 144.232 23.1751 146.667 22.0773L146.707 22.1571V22.1571Z" fill="black"/>
<path d="M109.78 42.8661L249.461 249.367L76.8862 69.4335L76.8064 69.3537C86.9461 59.593 97.9641 50.6906 109.691 42.7863H109.701L109.78 42.8661Z" fill="#FF0000"/>
<path d="M249.461 249.457H249.411L26.6567 137.179H26.6168C33.014 124.495 40.4591 112.398 48.9022 101.081L249.461 249.457V249.457Z" fill="#FF0000"/>
<path d="M249.441 249.497L5.56886 302.103C5.3493 301.115 5.1497 300.117 4.94012 299.119C4.1018 294.987 3.36327 290.795 2.73453 286.575C1.42714 277.852 0.588822 268.968 0.2495 259.977H0.289421L249.441 249.497Z" fill="#FF0000"/>
<path d="M249.441 249.497L0.289422 259.976H0.249501C0.209581 259.108 0.16966 258.23 0.13972 257.351C0.0798397 255.615 0.0399206 253.858 0.0199605 252.122C0.0099805 251.244 0 250.365 0 249.497C0 238.768 0.668663 228.219 1.99601 217.81H2.07585L249.441 249.497Z" fill="black"/>
<path d="M249.431 249.577L249.371 249.607L37.0459 380.308V380.318L37.006 380.358C35.1497 377.374 33.3633 374.34 31.6467 371.276C26.497 362.073 21.9162 352.493 17.9241 342.603L18.0439 342.563L249.431 249.577V249.577Z" fill="#FF0000"/>
<path d="M249.411 249.457L10.978 176.392L10.8982 176.362V176.352C11.6766 173.807 12.495 171.272 13.3433 168.757C13.6327 167.919 13.9222 167.08 14.2116 166.242C17.7445 156.242 21.8762 146.531 26.6168 137.179H26.6567L249.411 249.457Z" fill="black"/>
<path d="M249.371 249.617L62.2854 414.42L62.2455 414.46C54.0719 405.179 46.5868 395.308 39.8503 384.889C38.8922 383.392 37.9441 381.895 37.016 380.377C37.016 380.367 37.006 380.367 37.006 380.357L37.0459 380.317L249.371 249.617Z" fill="black"/>
<path d="M37.0459 380.318V380.308L249.371 249.617L37.0459 380.318Z" fill="black"/>
<path d="M217.705 1.99707C219.461 1.76752 221.228 1.56792 223.004 1.3783C221.228 1.56792 219.461 1.7775 217.705 1.99707Z" fill="black"/>
<path d="M146.667 22.0673V22.0773C144.232 23.1751 141.826 24.3129 139.431 25.4905C141.826 24.3129 144.232 23.1751 146.667 22.0673Z" fill="black"/>
<path d="M109.691 42.7763C119.152 36.359 129.082 30.5805 139.431 25.4905C129.092 30.5904 119.162 36.369 109.701 42.7863H109.691V42.7763V42.7763Z" fill="black"/>
<path d="M26.6068 137.179H26.6168C21.8762 146.531 17.7445 156.243 14.2116 166.242C17.7345 156.243 21.8663 146.531 26.6068 137.179Z" fill="black"/>
<path d="M13.3433 168.757C12.495 171.273 11.6766 173.808 10.8982 176.352H10.8882C11.6667 173.798 12.485 171.262 13.3433 168.757Z" fill="black"/>
<path d="M10.8982 176.352V176.362C10.3792 178.029 9.88024 179.715 9.4012 181.392C9.88024 179.706 10.3693 178.029 10.8882 176.352H10.8982V176.352Z" fill="#FF0000"/>
<path d="M2.73453 286.575C3.36327 290.795 4.1018 294.988 4.94012 299.119C4.1018 294.977 3.36327 290.795 2.73453 286.575Z" fill="#FF0000"/>
<path d="M0.0199604 252.122C0.0399205 253.858 0.0798396 255.615 0.13972 257.351C0.0798396 255.615 0.0399205 253.858 0.0199604 252.122Z" fill="black"/>
<path d="M249.501 499.003C235.15 499.003 221.058 497.795 207.375 495.43C193.283 493.095 179.601 489.532 166.457 484.871C155.509 481.009 144.92 476.418 134.76 471.128C132.405 469.91 130.09 468.653 127.784 467.365C125.459 466.067 123.164 464.74 120.888 463.373C119.371 462.464 117.864 461.536 116.377 460.599C111.148 457.305 106.058 453.822 101.108 450.149C99.7006 449.101 98.2934 448.033 96.9062 446.955C95.519 445.878 94.1417 444.779 92.7744 443.673L92.7645 443.662C85.8683 438.123 79.3014 432.224 73.0838 425.997C71.2076 424.131 69.3713 422.234 67.5748 420.319C65.7585 418.403 63.992 416.456 62.2455 414.48C54.0619 405.209 46.5768 395.318 39.8503 384.889C38.8922 383.392 37.9441 381.895 37.016 380.377C37.016 380.367 37.006 380.367 37.006 380.357C35.1497 377.373 33.3633 374.339 31.6467 371.275C26.487 362.072 21.9062 352.501 17.9242 342.622C15.9681 337.75 14.1617 332.8 12.505 327.77C9.74052 319.407 7.41517 310.844 5.56886 302.111V302.101C5.3493 301.113 5.1497 300.115 4.94012 299.117C4.1018 294.985 3.36327 290.793 2.73453 286.573C1.42715 277.85 0.588822 268.966 0.249501 259.975C0.209581 259.107 0.16966 258.229 0.13972 257.35C0.0798397 255.614 0.0399206 253.857 0.0199605 252.121C0.0099805 251.243 0 250.364 0 249.496C0 238.767 0.668663 228.218 1.99601 217.809C3.56287 205.363 6.0479 193.207 9.4012 181.391C9.88024 179.714 10.3792 178.027 10.8982 176.361V176.351C11.6766 173.806 12.495 171.271 13.3433 168.756C13.6327 167.918 13.9222 167.079 14.2116 166.241C17.7445 156.241 21.8762 146.53 26.6168 137.178C33.014 124.494 40.4591 112.397 48.9022 101.08C57.2655 89.7323 66.6168 79.1233 76.8064 69.3527C86.9461 59.592 97.9641 50.6896 109.691 42.7853H109.701C119.162 36.368 129.092 30.5894 139.431 25.4895C141.826 24.3119 144.232 23.1741 146.667 22.0763C153.044 19.182 159.591 16.5572 166.257 14.2019C167.924 13.613 169.601 13.0342 171.287 12.4853C172.136 12.2058 172.974 11.9364 173.822 11.6669C175.519 11.128 177.226 10.609 178.932 10.11C179.78 9.86048 180.639 9.61097 181.497 9.37145C183.214 8.88242 184.94 8.42333 186.667 7.97422C196.776 5.34941 207.136 3.34338 217.705 1.99605C219.461 1.77648 221.228 1.5669 223.004 1.37728C224.77 1.18765 226.557 1.01799 228.333 0.868284C235.319 0.279449 242.395 0 249.501 0C256.657 0 263.683 0.28943 270.669 0.868284C279.611 1.62678 288.404 2.85435 297.036 4.51107C299.621 5.01008 302.196 5.54901 304.75 6.12787C307.305 6.70672 309.849 7.31552 312.375 7.97422C315.838 8.86246 319.271 9.83054 322.666 10.8685C325.221 11.6469 327.746 12.4653 330.259 13.3236C334.451 14.7608 338.583 16.2977 342.675 17.9345C343.492 18.2638 344.301 18.5932 345.12 18.9325C347.554 19.9405 349.979 20.9884 352.375 22.0763C360.459 25.739 368.313 29.811 375.918 34.2821C378.194 35.6195 380.439 36.9868 382.676 38.394C382.676 38.404 382.676 38.404 382.686 38.404C384.162 39.3421 385.64 40.3002 387.107 41.2683C387.107 41.2683 387.107 41.2683 387.117 41.2783C387.845 41.7573 388.574 42.2563 389.302 42.7454C390.021 43.2244 390.73 43.7134 391.448 44.2125C397.286 48.2445 402.945 52.526 408.403 57.0371C409.76 58.1549 411.108 59.2926 412.446 60.4503C414.452 62.1769 416.427 63.9334 418.373 65.7299C419.671 66.9175 420.958 68.1251 422.226 69.3527H422.236C423.513 70.5803 424.77 71.8078 426.018 73.0554C434.75 81.798 442.794 91.1495 450.14 101.08C454.012 106.3 457.695 111.689 461.148 117.228C462.844 119.933 464.491 122.677 466.077 125.462C466.077 125.462 466.088 125.462 466.088 125.472C466.966 126.999 467.823 128.545 468.673 130.102C468.673 130.102 468.683 130.102 468.683 130.112C469.531 131.659 470.359 133.226 471.168 134.803C471.577 135.592 471.985 136.38 472.385 137.178C475.938 144.214 479.172 151.44 482.046 158.835C484.281 164.594 486.308 170.443 488.104 176.391C492.226 189.744 495.22 203.587 497.006 217.809C498.333 228.208 499.002 238.767 499.002 249.496C499.002 252.989 498.912 256.482 498.752 259.975C498.214 274.377 496.377 288.459 493.423 302.092V302.102C490.479 316.084 486.317 329.627 481.078 342.592V342.602C475.798 355.796 469.391 368.391 462.036 380.317V380.327C454.591 392.433 446.158 403.86 436.786 414.459V414.469C433.293 418.422 429.681 422.274 425.938 425.997C425.319 426.626 424.691 427.244 424.052 427.863C418.382 433.403 412.445 438.671 406.267 443.652C401.487 447.544 396.547 451.247 391.487 454.76C387.145 457.775 382.704 460.639 378.154 463.363C376.636 464.271 375.11 465.169 373.573 466.037C372.803 466.476 372.036 466.915 371.257 467.346H371.247C360.519 473.394 349.281 478.633 337.615 483.025C336.776 483.334 335.938 483.643 335.1 483.953C334.271 484.252 333.422 484.553 332.584 484.851C320.229 489.222 307.474 492.596 294.3 494.961C293.422 495.121 292.544 495.27 291.666 495.42C290.807 495.57 289.949 495.709 289.091 495.849C279.69 497.376 270.099 498.354 260.348 498.763C260.278 498.774 260.209 498.774 260.139 498.774C256.617 498.933 253.064 499.003 249.501 499.003V499.003Z" stroke="black" stroke-width="0.998014"/>
<path d="M249.501 249.836V498.993V499.003" stroke="black" stroke-width="0.998014"/>
<path d="M249.551 249.648L291.667 495.34" stroke="black" stroke-width="0.998014"/>
<path d="M249.551 249.648L332.585 484.851V484.861" stroke="black" stroke-width="0.998014"/>
<path d="M249.541 249.617L249.551 249.648L371.218 467.316" stroke="black" stroke-width="0.998014"/>
<path d="M249.541 249.547L406.267 443.653L406.307 443.693" stroke="black" stroke-width="0.998014"/>
<path d="M249.681 249.587L436.747 414.42" stroke="black" stroke-width="0.998014"/>
<path d="M249.631 249.537L249.671 249.577L249.681 249.587L461.986 380.318" stroke="black" stroke-width="0.998014"/>
<path d="M249.711 249.537L480.998 342.563" stroke="black" stroke-width="0.998014"/>
<path d="M249.581 249.497L249.621 249.537H249.631H249.711L493.423 302.103" stroke="black" stroke-width="0.998014"/>
<path d="M249.711 249.497L498.753 259.976" stroke="black" stroke-width="0.998014"/>
<path d="M249.591 249.497H249.711L496.966 217.81" stroke="black" stroke-width="0.998014"/>
<path d="M249.641 249.447L488.064 176.392" stroke="black" stroke-width="0.998014"/>
<path d="M249.581 249.497H249.591V249.487L249.621 249.457" stroke="black" stroke-width="0.998014"/>
<path d="M249.621 249.457L249.641 249.447L472.345 137.179" stroke="black" stroke-width="0.998014"/>
<path d="M249.541 249.497H249.581V249.487V249.457H249.621V249.417V249.407L450.14 101.081H450.18" stroke="black" stroke-width="0.998014"/>
<path d="M249.621 249.357L422.156 69.4335" stroke="black" stroke-width="0.998014"/>
<path d="M249.621 249.327L389.222 42.8661" stroke="black" stroke-width="0.998014"/>
<path d="M249.581 249.407H249.621V249.367" stroke="black" stroke-width="0.998014"/>
<path d="M249.581 249.367H249.621V249.357V249.327L352.335 22.1571" stroke="black" stroke-width="0.998014"/>
<path d="M249.541 249.457H249.581V249.417V249.407" stroke="black" stroke-width="0.998014"/>
<path d="M249.541 249.407H249.581V249.367L312.375 8.01514" stroke="black" stroke-width="0.998014"/>
<path d="M249.541 249.247L270.669 0.949127" stroke="black" stroke-width="0.998014"/>
<path d="M249.541 249.407V249.247L228.333 0.949127" stroke="black" stroke-width="0.998014"/>
<path d="M249.541 249.457V249.417V249.407L186.667 8.01514" stroke="black" stroke-width="0.998014"/>
<path d="M249.461 249.367L146.707 22.1571" stroke="black" stroke-width="0.998014"/>
<path d="M249.461 249.367L109.78 42.8661" stroke="black" stroke-width="0.998014"/>
<path d="M249.541 249.497V249.487V249.457H249.501L249.461 249.367L76.8862 69.4335" stroke="black" stroke-width="0.998014"/>
<path d="M249.461 249.457L48.9022 101.081H48.8623" stroke="black" stroke-width="0.998014"/>
<path d="M249.411 249.457L26.6567 137.179" stroke="black" stroke-width="0.998014"/>
<path d="M249.501 249.497V249.457H249.461" stroke="black" stroke-width="0.998014"/>
<path d="M249.461 249.497V249.457H249.411L10.978 176.392" stroke="black" stroke-width="0.998014"/>
<path d="M249.441 249.497L2.07585 217.81" stroke="black" stroke-width="0.998014"/>
<path d="M249.441 249.497L0.289421 259.976" stroke="black" stroke-width="0.998014"/>
<path d="M249.501 249.497H249.461H249.441L5.56886 302.103" stroke="black" stroke-width="0.998014"/>
<path d="M249.481 249.547L18.0439 342.563" stroke="black" stroke-width="0.998014"/>
<path d="M249.371 249.617L37.0459 380.318" stroke="black" stroke-width="0.998014"/>
<path d="M249.541 249.497H249.501V249.537L249.481 249.547V249.558H249.471L249.451 249.567L249.431 249.577L249.371 249.617L62.2854 414.42" stroke="black" stroke-width="0.998014"/>
<path d="M249.501 249.577L92.7745 443.653L92.7645 443.663L92.7246 443.693" stroke="black" stroke-width="0.998014"/>
<path d="M249.501 249.617L127.824 467.316" stroke="black" stroke-width="0.998014"/>
<path d="M249.501 249.657L166.457 484.861" stroke="black" stroke-width="0.998014"/>
<path d="M249.541 249.537H249.501V249.547V249.577V249.607V249.617" stroke="black" stroke-width="0.998014"/>
<path d="M249.541 249.497V249.537V249.547V249.607V249.617H249.501V249.657V249.826V249.836L207.375 495.34" stroke="black" stroke-width="0.998014"/>
<path d="M254.065 19.8716C254.065 22.8132 253.602 24.9736 252.678 26.3528C251.761 27.7246 250.334 28.4105 248.398 28.4105C246.432 28.4105 244.994 27.7136 244.084 26.3198C243.182 24.926 242.731 22.7839 242.731 19.8936C242.731 16.9812 243.189 14.8318 244.106 13.4454C245.023 12.0515 246.454 11.3546 248.398 11.3546C250.364 11.3546 251.798 12.0625 252.7 13.4784C253.61 14.8868 254.065 17.0179 254.065 19.8716ZM251.171 24.8673C251.427 24.2731 251.6 23.5762 251.688 22.7766C251.783 21.9696 251.831 21.0013 251.831 19.8716C251.831 18.7565 251.783 17.7882 251.688 16.9666C251.6 16.1449 251.424 15.448 251.16 14.8758C250.903 14.311 250.551 13.8855 250.103 13.5994C249.663 13.3133 249.095 13.1703 248.398 13.1703C247.708 13.1703 247.136 13.3133 246.681 13.5994C246.234 13.8855 245.878 14.3183 245.614 14.8979C245.364 15.4407 245.192 16.1486 245.096 17.0216C245.008 17.8945 244.964 18.8519 244.964 19.8936C244.964 21.038 245.005 21.9953 245.085 22.7656C245.166 23.5358 245.339 24.2254 245.603 24.8343C245.845 25.4065 246.186 25.8429 246.626 26.1437C247.073 26.4445 247.664 26.5949 248.398 26.5949C249.087 26.5949 249.659 26.4518 250.114 26.1657C250.569 25.8796 250.921 25.4468 251.171 24.8673Z" fill="white"/>
<path d="M82.3255 104.288L75.0481 112.659L73.3124 111.15C73.3195 110.136 73.3266 109.121 73.3337 108.107C73.3456 107.087 73.3242 106.111 73.2695 105.178C73.1638 103.22 72.9801 101.782 72.7183 100.864C72.4511 99.9418 71.9659 99.1749 71.2627 98.5636C70.6205 98.0053 69.9342 97.7829 69.2037 97.8963C68.4725 97.9994 67.7772 98.4302 67.1178 99.1887C66.6798 99.6925 66.2943 100.315 65.9613 101.056C65.6282 101.797 65.4014 102.606 65.2806 103.482L65.2084 103.565L63.4645 102.049C63.6124 101.488 63.8901 100.811 64.2975 100.018C64.7097 99.2192 65.1829 98.5127 65.7172 97.8982C66.8194 96.6303 67.9906 95.9036 69.2308 95.7181C70.4656 95.5278 71.6061 95.8875 72.6525 96.7972C73.1231 97.2064 73.5103 97.6499 73.8141 98.1279C74.1172 98.5955 74.3504 99.1045 74.5136 99.6547C74.6692 100.169 74.7855 100.717 74.8626 101.3C74.9445 101.876 75.007 102.548 75.0502 103.314C75.1165 104.412 75.1494 105.515 75.1488 106.623C75.1427 107.726 75.1339 108.753 75.1225 109.706L80.9054 103.053L82.3255 104.288ZM88.3585 90.3876C89.427 91.3166 89.9522 92.5071 89.9341 93.9592C89.9208 95.4058 89.3655 96.7602 88.2681 98.0225C87.1033 99.3624 85.8284 100.13 84.4432 100.326C83.0629 100.516 81.8329 100.142 80.7533 99.203C80.0668 98.6061 79.62 97.8677 79.4129 96.9878C79.2002 96.103 79.2459 95.156 79.5497 94.1467L79.4999 94.1034C78.568 94.4598 77.7521 94.6156 77.0521 94.5709C76.357 94.5207 75.6939 94.2212 75.0627 93.6725C74.1326 92.8639 73.6896 91.808 73.7337 90.5049C73.7779 89.2018 74.3125 87.9606 75.3377 86.7813C76.411 85.5466 77.564 84.8186 78.7965 84.5973C80.0291 84.3759 81.1021 84.6624 82.0156 85.4565C82.5748 85.9427 82.9741 86.596 83.2134 87.4165C83.4472 88.2322 83.4228 89.1101 83.1401 90.0503L83.1899 90.0936C84.1959 89.6073 85.1206 89.3711 85.964 89.3849C86.8074 89.3988 87.6055 89.733 88.3585 90.3876ZM80.6099 87.107C80.0175 86.592 79.3472 86.4127 78.5989 86.569C77.8499 86.7149 77.1674 87.1422 76.5513 87.8509C75.9448 88.5485 75.6128 89.2659 75.5551 90.0032C75.5022 90.7349 75.7582 91.3462 76.3229 91.8372C76.7215 92.1837 77.1638 92.3738 77.6498 92.4075C78.135 92.4308 78.6884 92.3141 79.3101 92.0574C79.5878 91.9392 79.973 91.7589 80.4657 91.5164C80.9632 91.2685 81.4234 91.0075 81.8462 90.7335C81.9573 89.8677 81.9078 89.1588 81.6976 88.6067C81.4874 88.0545 81.1248 87.5547 80.6099 87.107ZM87.029 92.2356C86.5197 91.7928 86.0141 91.5525 85.5122 91.5148C85.0097 91.4667 84.3194 91.6345 83.4414 92.0183C83.0934 92.1726 82.732 92.3591 82.3573 92.5777C81.9826 92.7963 81.4773 93.0812 80.8414 93.4324C80.6795 94.1666 80.6987 94.8881 80.8991 95.5969C81.1042 96.3002 81.5003 96.9069 82.0871 97.4171C82.8345 98.0669 83.6757 98.3461 84.6105 98.2548C85.5453 98.1634 86.3569 97.7219 87.0451 96.9302C87.7479 96.1219 88.101 95.2963 88.1045 94.4537C88.1128 93.6055 87.7543 92.8661 87.029 92.2356Z" fill="white"/>
<path d="M211.512 30.9236L200.589 32.8491L200.19 30.5843C200.833 29.8004 201.477 29.0165 202.121 28.2326C202.773 27.4474 203.37 26.6754 203.914 25.9166C205.064 24.3284 205.827 23.0953 206.201 22.2174C206.574 21.3324 206.679 20.4311 206.517 19.5136C206.37 18.6756 205.976 18.0708 205.337 17.6993C204.704 17.3193 203.893 17.2165 202.903 17.391C202.246 17.5069 201.554 17.7479 200.829 18.1141C200.104 18.4802 199.419 18.966 198.773 19.5715L198.665 19.5906L198.264 17.3149C198.732 16.9717 199.374 16.6201 200.19 16.2604C201.012 15.8993 201.825 15.6481 202.627 15.5067C204.281 15.2151 205.648 15.3875 206.729 16.0238C207.808 16.6529 208.468 17.6502 208.709 19.0155C208.817 19.6296 208.839 20.2179 208.774 20.7805C208.715 21.3347 208.576 21.8769 208.357 22.4072C208.154 22.9047 207.9 23.404 207.593 23.9049C207.294 24.4046 206.92 24.9659 206.471 25.5888C205.832 26.4836 205.163 27.3612 204.466 28.2216C203.767 29.0747 203.114 29.8678 202.505 30.6007L211.185 29.0706L211.512 30.9236ZM224.937 23.1604C225.226 24.8003 224.92 26.2359 224.02 27.4673C223.126 28.6901 221.895 29.4397 220.327 29.716C219.532 29.8561 218.788 29.8606 218.095 29.7296C217.401 29.5986 216.763 29.335 216.179 28.9389C215.452 28.4488 214.831 27.7388 214.317 26.8089C213.81 25.8778 213.434 24.7151 213.188 23.3208C212.936 21.8904 212.864 20.5958 212.973 19.437C213.089 18.2769 213.407 17.2078 213.927 16.2297C214.419 15.3013 215.127 14.521 216.051 13.8889C216.974 13.2495 218.103 12.812 219.44 12.5764C219.866 12.5013 220.227 12.4563 220.522 12.4415C220.817 12.4267 221.121 12.4401 221.434 12.4818L221.799 14.5516L221.691 14.5707C221.469 14.498 221.144 14.4509 220.716 14.4296C220.294 14.3998 219.869 14.4224 219.443 14.4976C217.89 14.7714 216.737 15.4774 215.984 16.6157C215.23 17.7468 214.923 19.1529 215.063 20.834C215.605 20.3585 216.152 19.9753 216.704 19.6844C217.262 19.3849 217.927 19.167 218.7 19.0307C219.387 18.9098 220.001 18.8684 220.544 18.9068C221.093 18.9366 221.676 19.0946 222.293 19.3807C223.006 19.7093 223.581 20.1815 224.017 20.7973C224.461 21.4119 224.767 22.1996 224.937 23.1604ZM222.752 23.6349C222.634 22.963 222.434 22.4246 222.155 22.0196C221.882 21.6133 221.489 21.2877 220.977 21.0428C220.604 20.8702 220.209 20.7835 219.791 20.7826C219.374 20.7816 218.945 20.82 218.504 20.8977C217.89 21.0059 217.332 21.1788 216.83 21.4162C216.328 21.6537 215.826 21.9732 215.323 22.3746C215.337 22.5361 215.353 22.6934 215.373 22.8463C215.391 22.9921 215.42 23.1769 215.46 23.4009C215.661 24.5423 215.935 25.425 216.284 26.0489C216.638 26.6643 217.055 27.1271 217.534 27.4374C217.923 27.6967 218.321 27.8684 218.731 27.9526C219.147 28.0283 219.582 28.0261 220.037 27.9459C221.085 27.7612 221.852 27.2982 222.34 26.5567C222.826 25.8081 222.963 24.8341 222.752 23.6349Z" fill="white"/>
<path d="M382.289 438.956C381.82 438.892 381.359 438.725 380.904 438.457C380.448 438.189 380.01 437.742 379.587 437.115C379.169 436.495 378.898 435.851 378.774 435.182C378.65 434.513 378.663 433.85 378.812 433.192C378.981 432.459 379.306 431.779 379.787 431.154C380.265 430.539 380.873 429.983 381.609 429.487C382.363 428.978 383.166 428.569 384.019 428.259C384.868 427.943 385.598 427.734 386.21 427.631L387.496 429.537L387.359 429.63C386.612 429.638 385.813 429.765 384.962 430.012C384.111 430.259 383.36 430.602 382.71 431.041C382.327 431.299 381.962 431.638 381.617 432.057C381.271 432.476 381.048 432.9 380.949 433.33C380.85 433.786 380.842 434.221 380.926 434.633C381.003 435.05 381.208 435.504 381.54 435.997C381.868 436.483 382.218 436.831 382.59 437.041C382.959 437.261 383.342 437.37 383.739 437.367C384.14 437.371 384.557 437.276 384.992 437.08C385.43 436.89 385.874 436.644 386.324 436.34L387.145 435.786L388.167 437.301L387.528 437.731C386.604 438.355 385.997 439.043 385.708 439.795C385.417 440.558 385.522 441.31 386.023 442.052C386.244 442.38 386.507 442.619 386.811 442.768C387.119 442.923 387.451 442.995 387.807 442.985C388.175 442.967 388.529 442.888 388.868 442.747C389.207 442.607 389.565 442.41 389.942 442.156C390.519 441.766 391.064 441.248 391.575 440.602C392.086 439.957 392.504 439.251 392.827 438.484L392.918 438.422L394.204 440.329C393.916 440.833 393.473 441.415 392.874 442.076C392.273 442.746 391.636 443.309 390.961 443.764C390.298 444.212 389.673 444.545 389.086 444.763C388.499 444.982 387.912 445.095 387.324 445.103C386.689 445.106 386.12 444.977 385.616 444.715C385.112 444.453 384.673 444.046 384.3 443.492C383.791 442.738 383.614 441.898 383.768 440.971C383.919 440.055 384.308 439.28 384.933 438.646L384.847 438.518C384.522 438.666 384.118 438.789 383.634 438.885C383.155 438.987 382.706 439.011 382.289 438.956ZM369.408 448.017C367.763 445.578 366.938 443.529 366.933 441.869C366.926 440.219 367.725 438.852 369.331 437.769C370.96 436.67 372.542 436.444 374.075 437.09C375.603 437.741 377.175 439.265 378.791 441.661C380.419 444.075 381.241 446.113 381.256 447.775C381.276 449.444 380.479 450.821 378.868 451.908C377.238 453.008 375.653 453.223 374.114 452.554C372.572 451.895 371.003 450.382 369.408 448.017ZM369.013 442.257C369.133 442.893 369.379 443.567 369.754 444.28C370.126 445.002 370.628 445.831 371.259 446.768C371.883 447.692 372.464 448.468 373.002 449.096C373.535 449.728 374.07 450.207 374.609 450.534C375.138 450.858 375.668 451.014 376.199 451.001C376.724 450.992 377.275 450.793 377.853 450.403C378.424 450.018 378.819 449.579 379.036 449.088C379.247 448.6 379.3 448.042 379.194 447.414C379.098 446.825 378.845 446.142 378.436 445.365C378.02 444.592 377.522 443.773 376.939 442.91C376.299 441.961 375.73 441.19 375.233 440.597C374.735 440.003 374.207 439.528 373.647 439.171C373.127 438.832 372.6 438.661 372.067 438.658C371.528 438.659 370.954 438.864 370.346 439.274C369.774 439.66 369.38 440.099 369.163 440.59C368.946 441.082 368.896 441.637 369.013 442.257Z" fill="white"/>
<path d="M403.63 408.285L410.009 402.124L411.171 403.327L408.718 405.696L416.347 413.596L418.8 411.226L419.84 412.302C419.507 412.624 419.177 412.994 418.848 413.414C418.524 413.839 418.315 414.198 418.222 414.492C418.107 414.859 418.077 415.208 418.134 415.541C418.19 415.885 418.373 416.238 418.683 416.601L417.457 417.786L407.198 407.164L404.792 409.488L403.63 408.285ZM393.325 418.238L399.704 412.077L400.866 413.28L398.412 415.65L406.041 423.549L408.495 421.179L409.535 422.256C409.202 422.577 408.871 422.947 408.542 423.367C408.219 423.792 408.01 424.151 407.917 424.445C407.801 424.812 407.772 425.161 407.828 425.494C407.885 425.838 408.068 426.191 408.378 426.554L407.151 427.739L396.893 417.117L394.486 419.441L393.325 418.238Z" fill="white"/>
<path d="M53.4399 123.016L61.3228 136.686L60.0751 138.683L51.995 124.332L47.0507 132.244L45.4178 131.224L51.3592 121.716L53.4399 123.016Z" fill="white"/>
<path d="M73.2432 381.928L79.7628 390.901L77.9023 392.253C76.9154 392.018 75.9286 391.783 74.9417 391.548C73.9505 391.307 72.9946 391.108 72.0741 390.952C70.1423 390.615 68.6999 390.47 67.7469 390.519C66.788 390.572 65.9316 390.872 65.1779 391.42C64.4895 391.92 64.1184 392.539 64.0647 393.276C64.0007 394.011 64.2641 394.786 64.8548 395.599C65.2472 396.139 65.7669 396.655 66.4139 397.146C67.0609 397.637 67.7979 398.04 68.6251 398.354L68.6898 398.443L66.8204 399.802C66.3065 399.531 65.7091 399.109 65.0282 398.533C64.343 397.952 63.7611 397.332 63.2825 396.673C62.295 395.314 61.8504 394.01 61.9486 392.76C62.0409 391.514 62.6478 390.483 63.7695 389.668C64.2739 389.302 64.7931 389.024 65.3272 388.836C65.8509 388.646 66.3992 388.533 66.972 388.498C67.5081 388.462 68.0685 388.472 68.6531 388.527C69.2334 388.577 69.9019 388.667 70.6585 388.798C71.743 388.98 72.8248 389.196 73.9039 389.446C74.977 389.7 75.9763 389.939 76.9017 390.165L71.7209 383.034L73.2432 381.928ZM58.2029 375.174C60.5827 373.445 62.6021 372.549 64.2611 372.486C65.9099 372.421 67.3034 373.172 68.4418 374.739C69.5974 376.33 69.8788 377.903 69.2859 379.458C68.6886 381.007 67.2209 382.631 64.8827 384.33C62.5266 386.042 60.5183 386.935 58.8576 387.008C57.191 387.085 55.7864 386.337 54.6438 384.765C53.4882 383.174 53.2179 381.598 53.8329 380.036C54.4377 378.472 55.8943 376.851 58.2029 375.174ZM63.9455 374.579C63.3138 374.72 62.6487 374.99 61.9501 375.389C61.2412 375.786 60.4298 376.317 59.5159 376.981C58.6138 377.636 57.8585 378.244 57.2499 378.804C56.6369 379.359 56.1766 379.911 55.8689 380.461C55.5629 381 55.4257 381.535 55.4572 382.065C55.4845 382.59 55.703 383.134 56.1126 383.698C56.5179 384.255 56.97 384.634 57.4688 384.834C57.9632 385.028 58.5225 385.061 59.1466 384.934C59.7323 384.817 60.4064 384.54 61.1686 384.104C61.9266 383.662 62.727 383.135 63.5697 382.523C64.4955 381.85 65.2462 381.255 65.8219 380.737C66.3976 380.219 66.8542 379.674 67.1915 379.103C67.5121 378.57 67.6647 378.038 67.6493 377.505C67.6296 376.966 67.4042 376.4 66.973 375.806C66.5677 375.249 66.1156 374.87 65.6168 374.67C65.118 374.47 64.5609 374.44 63.9455 374.579Z" fill="white"/>
<path d="M285.792 24.7149C286.084 25.0867 286.3 25.5271 286.441 26.0361C286.583 26.5452 286.588 27.1718 286.456 27.9159C286.326 28.6527 286.074 29.3047 285.698 29.8716C285.323 30.4385 284.853 30.9069 284.289 31.2767C283.658 31.6869 282.952 31.9499 282.172 32.0656C281.4 32.1754 280.577 32.1532 279.703 31.9991C278.807 31.8412 277.945 31.5775 277.116 31.2079C276.286 30.8456 275.616 30.489 275.104 30.1381L275.503 27.8732L275.666 27.9019C276.208 28.4147 276.872 28.878 277.655 29.2917C278.439 29.7055 279.217 29.9805 279.99 30.1168C280.445 30.197 280.943 30.2065 281.482 30.1452C282.022 30.0839 282.477 29.9332 282.847 29.693C283.235 29.4337 283.543 29.1266 283.769 28.7718C284.003 28.4182 284.171 27.9488 284.274 27.3636C284.376 26.7857 284.366 26.2923 284.245 25.8836C284.132 25.4688 283.932 25.1245 283.645 24.8504C283.359 24.5692 282.992 24.348 282.544 24.1871C282.097 24.0189 281.606 23.8877 281.071 23.7934L280.096 23.6215L280.413 21.8227L281.172 21.9564C282.27 22.1499 283.184 22.0765 283.914 21.736C284.653 21.3895 285.101 20.7756 285.256 19.8942C285.325 19.5041 285.301 19.1499 285.186 18.8317C285.072 18.5062 284.884 18.2234 284.621 17.9834C284.343 17.7408 284.034 17.5522 283.692 17.4175C283.351 17.2829 282.957 17.1761 282.509 17.0971C281.822 16.9761 281.071 16.9703 280.255 17.0797C279.439 17.189 278.648 17.4072 277.883 17.7341L277.774 17.715L278.173 15.4502C278.731 15.2878 279.454 15.1769 280.344 15.1177C281.242 15.0525 282.091 15.0906 282.893 15.232C283.681 15.3708 284.362 15.5653 284.936 15.8155C285.51 16.0657 286.011 16.3924 286.439 16.7955C286.898 17.234 287.218 17.7224 287.399 18.2608C287.579 18.7992 287.612 19.397 287.496 20.0545C287.338 20.9503 286.882 21.6781 286.128 22.2378C285.382 22.7917 284.564 23.0795 283.674 23.1014L283.647 23.2531C283.984 23.372 284.359 23.5648 284.774 23.8316C285.19 24.0912 285.529 24.3856 285.792 24.7149ZM299.95 35.222L289.027 33.2965L289.427 31.0317C290.3 30.5152 291.173 29.9987 292.046 29.4823C292.927 28.9671 293.752 28.4459 294.523 27.9189C296.147 26.8197 297.285 25.9216 297.936 25.2245C298.589 24.5203 298.997 23.7094 299.158 22.7919C299.306 21.9539 299.143 21.2511 298.67 20.6835C298.205 20.1099 297.477 19.7358 296.488 19.5614C295.83 19.4455 295.098 19.4356 294.292 19.5318C293.485 19.628 292.675 19.8502 291.861 20.1984L291.753 20.1792L292.154 17.9036C292.712 17.7412 293.435 17.6303 294.325 17.5711C295.221 17.5132 296.07 17.5549 296.872 17.6962C298.527 17.9879 299.753 18.6174 300.551 19.5849C301.35 20.5451 301.629 21.7079 301.388 23.0733C301.28 23.6873 301.099 24.2476 300.846 24.7542C300.601 25.2549 300.285 25.7168 299.898 26.1401C299.537 26.5384 299.127 26.9205 298.668 27.2864C298.216 27.6537 297.672 28.0532 297.038 28.4851C296.131 29.1074 295.203 29.7035 294.253 30.2735C293.305 30.8363 292.419 31.3581 291.597 31.8389L300.277 33.369L299.95 35.222Z" fill="white"/>
<path d="M466.622 199.56L464.778 190.885L466.414 190.538L467.123 193.874L477.864 191.591L477.155 188.255L478.619 187.944C478.715 188.396 478.854 188.872 479.035 189.374C479.224 189.873 479.418 190.241 479.618 190.476C479.868 190.768 480.148 190.978 480.461 191.107C480.782 191.241 481.178 191.273 481.651 191.202L482.006 192.87L467.563 195.94L468.258 199.212L466.622 199.56ZM483.429 211.634L468.262 207.276L467.773 204.973L483.554 209.684L481.615 200.558L483.498 200.157L485.829 211.124L483.429 211.634Z" fill="white"/>
<path d="M225.894 474.005C225.961 473.245 226.163 472.53 226.502 471.86C226.84 471.19 227.271 470.638 227.795 470.206C228.366 469.74 229.029 469.401 229.784 469.187C230.532 468.98 231.384 468.918 232.341 469.002C233.233 469.08 234.083 469.25 234.892 469.512C235.702 469.767 236.381 470.051 236.928 470.364L236.725 472.677L236.572 472.664C236.006 472.231 235.333 471.845 234.552 471.504C233.772 471.171 232.994 470.97 232.219 470.902C231.7 470.857 231.193 470.886 230.698 470.99C230.196 471.093 229.738 471.311 229.326 471.643C228.977 471.929 228.703 472.284 228.504 472.709C228.298 473.133 228.169 473.633 228.119 474.211C228.069 474.773 228.126 475.257 228.29 475.662C228.446 476.065 228.686 476.399 229.009 476.663C229.364 476.974 229.811 477.209 230.35 477.366C230.88 477.53 231.482 477.642 232.154 477.701C232.797 477.757 233.422 477.768 234.029 477.732C234.629 477.697 235.148 477.654 235.587 477.604L234.851 486.012L225.029 485.152L225.197 483.234L232.903 483.908L233.283 479.567C232.966 479.569 232.643 479.563 232.313 479.548C231.983 479.534 231.697 479.517 231.456 479.495C230.572 479.418 229.804 479.274 229.152 479.062C228.5 478.857 227.913 478.541 227.39 478.112C226.841 477.659 226.433 477.101 226.167 476.437C225.902 475.773 225.81 474.962 225.894 474.005Z" fill="white"/>
<path d="M29.5192 242.339L29.1321 253.424L26.8337 253.344C26.2007 252.551 25.5678 251.758 24.9348 250.965C24.3021 250.165 23.6711 249.42 23.0419 248.73C21.7274 247.275 20.6797 246.273 19.8987 245.724C19.1104 245.176 18.2507 244.885 17.3196 244.853C16.4692 244.823 15.7958 245.082 15.2995 245.63C14.7962 246.17 14.527 246.943 14.4919 247.947C14.4686 248.614 14.5607 249.34 14.7682 250.126C14.9756 250.911 15.3084 251.682 15.7664 252.44L15.7626 252.55L13.4531 252.469C13.2147 251.94 13.0043 251.239 12.8219 250.366C12.6397 249.486 12.5629 248.639 12.5913 247.826C12.6499 246.147 13.1028 244.845 13.9499 243.92C14.7896 242.995 15.9023 242.557 17.288 242.605C17.9112 242.627 18.4912 242.728 19.0281 242.908C19.5579 243.081 20.0594 243.33 20.5325 243.655C20.9771 243.956 21.4126 244.309 21.8389 244.713C22.2655 245.11 22.7368 245.592 23.2528 246.161C23.9952 246.972 24.7147 247.809 25.4113 248.67C26.1007 249.531 26.7406 250.335 27.3311 251.082L27.6387 242.273L29.5192 242.339ZM30.0192 228.02L29.6321 239.106L27.3337 239.025C26.7007 238.232 26.0678 237.44 25.4348 236.647C24.8021 235.847 24.1711 235.101 23.5419 234.412C22.2274 232.956 21.1797 231.954 20.3987 231.406C19.6104 230.857 18.7507 230.567 17.8196 230.534C16.9692 230.504 16.2958 230.764 15.7995 231.311C15.2962 231.852 15.027 232.624 14.9919 233.628C14.9686 234.296 15.0607 235.022 15.2682 235.807C15.4756 236.593 15.8084 237.364 16.2664 238.121L16.2626 238.231L13.9531 238.151C13.7147 237.621 13.5043 236.92 13.3219 236.048C13.1397 235.168 13.0629 234.321 13.0913 233.507C13.1499 231.828 13.6028 230.526 14.4499 229.602C15.2896 228.677 16.4023 228.238 17.788 228.287C18.4112 228.309 18.9912 228.41 19.5281 228.59C20.0579 228.762 20.5594 229.011 21.0326 229.336C21.4771 229.638 21.9126 229.991 22.3389 230.395C22.7655 230.791 23.2368 231.274 23.7528 231.842C24.4952 232.654 25.2147 233.49 25.9114 234.351C26.6007 235.212 27.2406 236.016 27.8311 236.763L28.1387 227.955L30.0192 228.02Z" fill="white"/>
<path d="M480.581 237.828C480.278 238.191 479.892 238.495 479.423 238.739C478.955 238.983 478.343 239.118 477.588 239.144C476.84 239.17 476.15 239.059 475.517 238.809C474.884 238.56 474.329 238.197 473.85 237.722C473.317 237.19 472.913 236.555 472.638 235.816C472.37 235.084 472.221 234.274 472.19 233.387C472.158 232.478 472.237 231.58 472.426 230.692C472.608 229.805 472.817 229.074 473.054 228.501L475.352 228.421L475.358 228.586C474.969 229.223 474.654 229.968 474.412 230.821C474.17 231.673 474.063 232.492 474.091 233.276C474.107 233.738 474.201 234.227 474.373 234.742C474.545 235.257 474.787 235.671 475.099 235.983C475.433 236.309 475.798 236.546 476.192 236.694C476.586 236.849 477.081 236.916 477.674 236.895C478.261 236.874 478.741 236.762 479.116 236.558C479.498 236.361 479.794 236.094 480.002 235.757C480.218 235.419 480.358 235.014 480.422 234.542C480.494 234.07 480.52 233.562 480.501 233.02L480.466 232.03L482.292 231.966L482.319 232.736C482.358 233.85 482.62 234.729 483.105 235.373C483.597 236.024 484.291 236.334 485.185 236.302C485.581 236.289 485.923 236.192 486.21 236.013C486.505 235.834 486.742 235.591 486.922 235.284C487.102 234.962 487.222 234.62 487.283 234.258C487.344 233.896 487.366 233.488 487.35 233.034C487.326 232.337 487.175 231.601 486.899 230.825C486.622 230.049 486.244 229.321 485.765 228.641L485.761 228.531L488.06 228.45C488.335 228.962 488.593 229.647 488.836 230.504C489.087 231.369 489.226 232.208 489.255 233.022C489.282 233.821 489.234 234.528 489.108 235.141C488.983 235.755 488.768 236.313 488.462 236.816C488.129 237.356 487.717 237.77 487.228 238.059C486.739 238.347 486.161 238.503 485.494 238.527C484.585 238.559 483.778 238.264 483.074 237.642C482.377 237.028 481.925 236.288 481.719 235.421L481.565 235.427C481.519 235.781 481.408 236.188 481.233 236.65C481.066 237.111 480.848 237.504 480.581 237.828ZM477.867 254.076L477.782 251.646L473.174 251.807L473.1 249.695L477.708 249.534L477.435 241.693L479.964 241.605L489.479 249.211L489.549 251.235L479.542 251.584L479.627 254.015L477.867 254.076ZM479.468 249.473L486.858 249.215L479.246 243.127L479.468 249.473Z" fill="white"/>
<path d="M320.497 41.8459L312.112 38.9581L312.656 37.3766L315.882 38.4873L319.457 28.1041L316.232 26.9934L316.719 25.5784C317.156 25.7289 317.636 25.8555 318.16 25.9581C318.685 26.0538 319.1 26.0764 319.405 26.0261C319.783 25.9626 320.108 25.8301 320.38 25.6286C320.66 25.4226 320.892 25.0989 321.075 24.6577L322.687 25.213L317.879 39.1752L321.042 40.2644L320.497 41.8459ZM336.498 41.8512C336.249 42.5725 335.88 43.2173 335.389 43.7855C334.899 44.3536 334.347 44.7843 333.734 45.0775C333.067 45.391 332.342 45.5602 331.558 45.5849C330.783 45.605 329.941 45.4587 329.032 45.1458C328.186 44.8543 327.402 44.4835 326.68 44.0333C325.956 43.59 325.367 43.1503 324.912 42.7143L325.668 40.519L325.813 40.5692C326.258 41.1257 326.817 41.6637 327.492 42.1831C328.169 42.6955 328.875 43.0783 329.61 43.3315C330.103 43.5011 330.602 43.5954 331.107 43.6143C331.62 43.6356 332.116 43.535 332.596 43.3124C333.004 43.1192 333.356 42.8408 333.652 42.4772C333.955 42.116 334.2 41.6614 334.389 41.1135C334.573 40.5794 334.635 40.0963 334.574 39.6642C334.52 39.2345 334.369 38.8525 334.119 38.5183C333.849 38.1305 333.472 37.7951 332.988 37.5119C332.513 37.2241 331.956 36.9704 331.318 36.7506C330.708 36.5404 330.104 36.379 329.506 36.2664C328.916 36.1562 328.402 36.0722 327.964 36.0145L330.712 28.0346L340.034 31.2448L339.407 33.0656L332.093 30.5468L330.674 34.6668C330.982 34.7418 331.294 34.8261 331.611 34.9197C331.928 35.0133 332.201 35.0995 332.43 35.1783C333.269 35.4673 333.979 35.7934 334.56 36.1564C335.143 36.5125 335.637 36.9616 336.04 37.5038C336.463 38.0764 336.723 38.7169 336.821 39.4255C336.918 40.134 336.81 40.9426 336.498 41.8512Z" fill="white"/>
<path d="M177.218 33.3952C177.653 33.5788 178.056 33.859 178.427 34.2358C178.797 34.6126 179.105 35.1582 179.351 35.8726C179.595 36.5801 179.69 37.2728 179.636 37.9507C179.582 38.6286 179.399 39.2661 179.084 39.8631C178.731 40.5278 178.242 41.0999 177.615 41.5793C176.994 42.0495 176.263 42.429 175.424 42.7181C174.564 43.0142 173.682 43.2016 172.778 43.2802C171.876 43.3656 171.117 43.379 170.499 43.3201L169.75 41.1457L169.906 41.0919C170.63 41.2773 171.434 41.361 172.32 41.3429C173.206 41.3249 174.02 41.1881 174.762 40.9325C175.199 40.782 175.639 40.5491 176.081 40.2339C176.524 39.9186 176.848 39.5663 177.056 39.1768C177.27 38.7617 177.39 38.3441 177.416 37.924C177.449 37.5014 177.368 37.0092 177.175 36.4474C176.984 35.8925 176.736 35.4658 176.431 35.1672C176.131 34.8594 175.79 34.6551 175.406 34.5545C175.02 34.447 174.591 34.4315 174.121 34.5081C173.649 34.5777 173.156 34.7009 172.643 34.8777L171.706 35.2001L171.111 33.4731L171.84 33.2223C172.894 32.8592 173.658 32.3517 174.132 31.6997C174.61 31.0385 174.704 30.2847 174.412 29.4385C174.283 29.064 174.091 28.7655 173.836 28.543C173.579 28.3135 173.277 28.1576 172.93 28.0752C172.57 27.9976 172.208 27.9826 171.844 28.0303C171.48 28.078 171.083 28.1758 170.653 28.3239C169.994 28.5509 169.334 28.91 168.674 29.4014C168.013 29.8928 167.427 30.467 166.916 31.1239L166.812 31.1598L166.063 28.9853C166.472 28.573 167.051 28.1253 167.8 27.6423C168.554 27.15 169.316 26.7713 170.086 26.5061C170.842 26.2458 171.531 26.0858 172.155 26.0263C172.778 25.9668 173.375 26.0096 173.945 26.1547C174.559 26.3157 175.075 26.5878 175.494 26.9711C175.913 27.3543 176.232 27.8616 176.449 28.4927C176.745 29.3528 176.699 30.2105 176.311 31.0657C175.927 31.9116 175.351 32.5599 174.583 33.0106L174.633 33.1563C174.985 33.0971 175.407 33.0837 175.9 33.1159C176.389 33.1412 176.829 33.2343 177.218 33.3952Z" fill="white"/>
<path d="M194.916 466.293L205.629 469.164L205.034 471.385C204.119 471.824 203.204 472.262 202.289 472.7C201.367 473.137 200.5 473.584 199.686 474.042C197.972 474.995 196.76 475.791 196.05 476.428C195.339 477.073 194.862 477.845 194.621 478.745C194.401 479.567 194.502 480.281 194.924 480.888C195.337 481.5 196.029 481.936 197 482.196C197.645 482.369 198.373 482.442 199.185 482.417C199.997 482.391 200.823 482.241 201.664 481.965L201.77 481.993L201.172 484.225C200.603 484.338 199.872 484.386 198.981 484.367C198.083 484.347 197.241 484.231 196.454 484.02C194.831 483.586 193.665 482.852 192.955 481.818C192.242 480.792 192.066 479.609 192.424 478.27C192.586 477.668 192.815 477.125 193.111 476.643C193.398 476.166 193.753 475.733 194.176 475.345C194.57 474.98 195.012 474.635 195.502 474.31C195.984 473.984 196.56 473.633 197.23 473.258C198.188 472.718 199.164 472.205 200.16 471.72C201.154 471.242 202.081 470.799 202.942 470.392L194.429 468.111L194.916 466.293ZM179.523 466.942L181.872 467.571L183.065 463.118L185.106 463.665L183.913 468.118L191.491 470.149L190.836 472.593L180.781 479.468L178.825 478.944L181.416 469.272L179.068 468.643L179.523 466.942ZM183.457 469.819L181.543 476.961L189.589 471.462L183.457 469.819Z" fill="white"/>
<path d="M20.2444 274.024C21.6641 273.85 22.9729 273.855 24.1708 274.041C25.3677 274.219 26.4141 274.585 27.31 275.141C28.2214 275.701 28.964 276.452 29.5379 277.394C30.1118 278.336 30.4815 279.481 30.6469 280.828C30.6934 281.206 30.7154 281.566 30.7128 281.906C30.7175 282.245 30.6923 282.552 30.6372 282.824L28.5513 283.081L28.5379 282.971C28.6211 282.747 28.69 282.435 28.7446 282.037C28.7918 281.639 28.7864 281.204 28.7283 280.731C28.5307 279.122 27.8955 277.921 26.8226 277.129C25.7417 276.331 24.3441 275.963 22.6298 276.026C23.1207 276.653 23.4901 277.254 23.7382 277.83C23.9862 278.405 24.1536 279.046 24.2404 279.752C24.3226 280.422 24.3318 281.038 24.2678 281.6C24.2029 282.155 24.0147 282.729 23.7032 283.321C23.3378 284.017 22.833 284.57 22.1889 284.982C21.5438 285.386 20.7444 285.647 19.7907 285.764C18.1307 285.968 16.7131 285.588 15.5379 284.624C14.3626 283.659 13.6784 282.391 13.4853 280.818C13.3887 280.032 13.4231 279.289 13.5883 278.589C13.7463 277.889 14.0384 277.258 14.4645 276.696C14.9928 276.003 15.7132 275.431 16.6258 274.978C17.5312 274.527 18.7374 274.209 20.2444 274.024ZM20.0458 276.288C18.9173 276.426 18.0252 276.654 17.3694 276.971C16.7137 277.288 16.2215 277.674 15.893 278.128C15.6074 278.511 15.4196 278.907 15.3295 279.317C15.2322 279.728 15.2117 280.163 15.2681 280.622C15.3968 281.67 15.8264 282.46 16.5567 282.991C17.2862 283.515 18.2443 283.704 19.431 283.558C20.1227 283.473 20.6749 283.305 21.0876 283.055C21.5002 282.805 21.8418 282.427 22.1122 281.92C22.2976 281.565 22.4063 281.186 22.4381 280.783C22.4626 280.381 22.4453 279.94 22.3863 279.459C22.3166 278.891 22.1695 278.325 21.9451 277.762C21.7206 277.198 21.4315 276.679 21.0777 276.205C20.9239 276.217 20.7738 276.228 20.6273 276.239C20.4726 276.243 20.2788 276.259 20.0458 276.288Z" fill="white"/>
<path d="M437.281 384.446C436.818 384.545 436.328 384.547 435.808 384.451C435.289 384.354 434.723 384.084 434.112 383.64C433.507 383.2 433.032 382.687 432.687 382.101C432.342 381.515 432.127 380.887 432.042 380.218C431.95 379.471 432.023 378.722 432.261 377.97C432.501 377.228 432.881 376.498 433.403 375.78C433.938 375.044 434.553 374.385 435.248 373.802C435.938 373.215 436.553 372.768 437.092 372.462L438.953 373.814L438.856 373.947C438.157 374.21 437.45 374.603 436.734 375.126C436.019 375.649 435.43 376.228 434.969 376.863C434.697 377.237 434.471 377.68 434.289 378.192C434.108 378.704 434.044 379.179 434.097 379.617C434.16 380.079 434.301 380.49 434.521 380.849C434.736 381.215 435.084 381.572 435.565 381.921C436.04 382.266 436.488 382.473 436.908 382.543C437.331 382.623 437.728 382.595 438.1 382.457C438.478 382.324 438.838 382.091 439.179 381.758C439.526 381.43 439.859 381.047 440.178 380.607L440.76 379.806L442.238 380.88L441.785 381.503C441.13 382.405 440.795 383.259 440.781 384.065C440.768 384.881 441.124 385.552 441.848 386.078C442.169 386.311 442.497 386.445 442.834 386.481C443.176 386.522 443.513 386.476 443.844 386.345C444.184 386.202 444.489 386.006 444.76 385.759C445.03 385.511 445.299 385.203 445.567 384.835C445.976 384.272 446.311 383.599 446.57 382.817C446.83 382.036 446.981 381.229 447.022 380.398L447.087 380.309L448.948 381.661C448.849 382.233 448.632 382.932 448.295 383.757C447.96 384.593 447.553 385.34 447.074 385.999C446.604 386.646 446.131 387.172 445.654 387.579C445.178 387.985 444.665 388.292 444.114 388.5C443.519 388.72 442.94 388.794 442.377 388.72C441.814 388.646 441.262 388.413 440.722 388.021C439.986 387.486 439.532 386.757 439.36 385.834C439.189 384.921 439.289 384.06 439.659 383.25L439.535 383.159C439.28 383.41 438.942 383.663 438.521 383.919C438.105 384.179 437.692 384.355 437.281 384.446ZM425.787 395.885C424.44 394.906 423.662 393.661 423.454 392.15C423.248 390.649 423.613 389.255 424.549 387.967C425.023 387.314 425.555 386.794 426.145 386.406C426.735 386.019 427.377 385.765 428.072 385.644C428.936 385.492 429.875 385.571 430.891 385.883C431.902 386.201 432.981 386.776 434.126 387.608C435.301 388.462 436.252 389.343 436.979 390.252C437.702 391.167 438.216 392.157 438.521 393.222C438.812 394.232 438.845 395.285 438.619 396.382C438.4 397.482 437.891 398.582 437.093 399.68C436.839 400.03 436.611 400.313 436.409 400.529C436.206 400.745 435.978 400.946 435.724 401.133L434.024 399.898L434.089 399.809C434.299 399.707 434.565 399.516 434.888 399.233C435.212 398.961 435.502 398.65 435.756 398.3C436.683 397.024 437.022 395.715 436.773 394.374C436.53 393.036 435.774 391.811 434.505 390.699C434.446 391.418 434.319 392.073 434.124 392.666C433.93 393.269 433.603 393.888 433.142 394.523C432.732 395.087 432.318 395.544 431.901 395.893C431.486 396.253 430.957 396.545 430.314 396.767C429.573 397.026 428.831 397.086 428.09 396.946C427.344 396.812 426.576 396.458 425.787 395.885ZM427.029 394.026C427.58 394.427 428.098 394.676 428.581 394.773C429.059 394.876 429.568 394.837 430.106 394.657C430.495 394.522 430.839 394.31 431.14 394.021C431.441 393.732 431.723 393.406 431.986 393.044C432.352 392.54 432.633 392.028 432.83 391.508C433.026 390.989 433.165 390.41 433.248 389.772C433.126 389.665 433.005 389.564 432.884 389.467C432.77 389.375 432.621 389.262 432.437 389.128C431.499 388.447 430.688 388.003 430.004 387.796C429.322 387.6 428.701 387.556 428.14 387.666C427.681 387.749 427.275 387.903 426.921 388.127C426.57 388.361 426.258 388.665 425.987 389.039C425.361 389.899 425.131 390.766 425.295 391.638C425.466 392.514 426.043 393.31 427.029 394.026Z" fill="white"/>
<path d="M449.485 347.09L453.512 339.188L455.002 339.947L453.453 342.987L463.238 347.972L464.787 344.933L466.12 345.612C465.91 346.024 465.718 346.482 465.544 346.986C465.376 347.493 465.296 347.901 465.303 348.21C465.313 348.593 465.399 348.934 465.561 349.23C465.726 349.537 466.014 349.811 466.426 350.054L465.651 351.573L452.494 344.869L450.975 347.85L449.485 347.09ZM450.24 362.986C449.799 363.157 449.315 363.235 448.787 363.221C448.259 363.208 447.658 363.029 446.985 362.686C446.318 362.346 445.769 361.914 445.336 361.389C444.904 360.864 444.593 360.278 444.405 359.63C444.197 358.907 444.152 358.155 444.269 357.375C444.39 356.605 444.652 355.825 445.055 355.034C445.468 354.223 445.972 353.476 446.568 352.791C447.157 352.104 447.694 351.566 448.179 351.18L450.229 352.224L450.154 352.371C449.505 352.74 448.868 353.239 448.243 353.867C447.618 354.495 447.127 355.159 446.771 355.859C446.561 356.271 446.407 356.743 446.307 357.277C446.208 357.812 446.219 358.291 446.341 358.715C446.475 359.162 446.679 359.546 446.952 359.866C447.222 360.193 447.622 360.491 448.151 360.761C448.674 361.027 449.149 361.162 449.575 361.166C450.005 361.179 450.393 361.088 450.738 360.894C451.091 360.703 451.41 360.417 451.695 360.035C451.986 359.657 452.255 359.226 452.502 358.742L452.951 357.86L454.579 358.689L454.229 359.375C453.723 360.369 453.526 361.264 453.638 362.063C453.753 362.87 454.21 363.478 455.007 363.884C455.36 364.064 455.705 364.145 456.044 364.128C456.388 364.114 456.714 364.017 457.02 363.835C457.333 363.641 457.604 363.4 457.833 363.113C458.061 362.826 458.279 362.48 458.485 362.075C458.802 361.454 459.027 360.737 459.161 359.924C459.295 359.112 459.318 358.292 459.229 357.464L459.279 357.366L461.328 358.41C461.32 358.991 461.215 359.715 461.011 360.583C460.811 361.461 460.526 362.263 460.156 362.988C459.793 363.701 459.408 364.295 459.001 364.771C458.594 365.247 458.135 365.63 457.624 365.922C457.071 366.232 456.51 366.395 455.943 366.411C455.375 366.426 454.794 366.282 454.199 365.979C453.388 365.566 452.826 364.917 452.511 364.032C452.199 363.157 452.163 362.291 452.403 361.433L452.265 361.363C452.053 361.65 451.759 361.953 451.383 362.272C451.013 362.594 450.632 362.832 450.24 362.986Z" fill="white"/>
<path d="M90.9516 406.779L97.3311 412.94L96.1691 414.143L93.7155 411.773L86.0865 419.673L88.5401 422.043L87.5005 423.119C87.1681 422.798 86.7864 422.48 86.3556 422.166C85.9196 421.857 85.553 421.661 85.2558 421.578C84.8857 421.476 84.5352 421.458 84.2044 421.527C83.8632 421.595 83.5164 421.79 83.164 422.113L81.9372 420.928L92.1958 410.306L89.7897 407.982L90.9516 406.779Z" fill="white"/>
<path d="M463.135 313.937L466.378 303.33L468.577 304.002C468.983 304.932 469.389 305.862 469.796 306.791C470.2 307.728 470.616 308.611 471.045 309.44C471.938 311.186 472.691 312.425 473.303 313.157C473.923 313.891 474.678 314.394 475.569 314.667C476.383 314.916 477.1 314.84 477.721 314.439C478.347 314.047 478.807 313.371 479.101 312.41C479.296 311.772 479.395 311.046 479.398 310.234C479.401 309.422 479.279 308.59 479.033 307.74L479.065 307.635L481.275 308.311C481.368 308.884 481.39 309.616 481.34 310.506C481.289 311.403 481.144 312.24 480.906 313.019C480.414 314.626 479.64 315.766 478.582 316.44C477.532 317.116 476.344 317.251 475.018 316.846C474.422 316.663 473.887 316.416 473.415 316.103C472.948 315.799 472.528 315.429 472.155 314.992C471.804 314.586 471.475 314.132 471.168 313.632C470.858 313.138 470.528 312.55 470.177 311.867C469.67 310.892 469.191 309.898 468.741 308.885C468.298 307.875 467.888 306.933 467.511 306.058L464.934 314.487L463.135 313.937ZM472.255 331.754L461.101 320.588L461.79 318.336L473.31 330.109L476.038 321.185L477.88 321.748L474.601 332.471L472.255 331.754Z" fill="white"/>
<path d="M270.996 472.319L279.831 471.546L279.977 473.212L276.579 473.509L277.536 484.45L280.935 484.152L281.065 485.643C280.605 485.683 280.115 485.763 279.595 485.882C279.076 486.009 278.687 486.157 278.43 486.326C278.109 486.539 277.867 486.792 277.701 487.086C277.528 487.388 277.448 487.778 277.461 488.256L275.762 488.405L274.474 473.694L271.141 473.985L270.996 472.319ZM256.528 481.815C256.271 478.884 256.543 476.692 257.344 475.237C258.138 473.791 259.5 472.983 261.429 472.814C263.387 472.643 264.881 473.211 265.908 474.521C266.929 475.831 267.565 477.925 267.817 480.805C268.071 483.706 267.802 485.887 267.009 487.348C266.217 488.817 264.853 489.636 262.916 489.805C260.958 489.977 259.467 489.397 258.445 488.065C257.416 486.741 256.777 484.658 256.528 481.815ZM258.975 476.586C258.771 477.2 258.66 477.909 258.642 478.714C258.618 479.526 258.655 480.495 258.753 481.62C258.85 482.731 258.982 483.691 259.149 484.502C259.308 485.312 259.545 485.991 259.858 486.538C260.163 487.079 260.551 487.472 261.021 487.718C261.485 487.964 262.064 488.057 262.758 487.997C263.445 487.936 264.002 487.744 264.43 487.419C264.851 487.095 265.168 486.633 265.381 486.033C265.582 485.47 265.692 484.75 265.711 483.872C265.722 482.995 265.683 482.037 265.592 480.999C265.492 479.859 265.368 478.909 265.221 478.149C265.073 477.388 264.841 476.717 264.525 476.133C264.234 475.584 263.856 475.179 263.391 474.918C262.919 474.657 262.318 474.559 261.587 474.623C260.9 474.683 260.343 474.875 259.915 475.2C259.486 475.525 259.173 475.987 258.975 476.586Z" fill="white"/>
<path d="M456.19 164.374L452.035 154.09L454.168 153.228C455.068 153.695 455.969 154.162 456.87 154.629C457.773 155.103 458.653 155.527 459.508 155.901C461.301 156.696 462.665 157.185 463.602 157.368C464.545 157.549 465.449 157.465 466.313 157.116C467.102 156.797 467.611 156.286 467.842 155.584C468.082 154.886 468.014 154.071 467.637 153.139C467.387 152.52 467.008 151.894 466.499 151.261C465.99 150.628 465.372 150.058 464.646 149.553L464.604 149.451L466.747 148.585C467.18 148.972 467.658 149.527 468.179 150.25C468.703 150.979 469.118 151.722 469.423 152.477C470.052 154.034 470.168 155.408 469.77 156.597C469.379 157.784 468.541 158.637 467.256 159.156C466.677 159.389 466.106 159.533 465.543 159.587C464.988 159.645 464.429 159.621 463.865 159.517C463.336 159.422 462.795 159.277 462.241 159.081C461.69 158.892 461.063 158.643 460.36 158.334C459.352 157.895 458.355 157.423 457.368 156.92C456.388 156.414 455.476 155.939 454.633 155.497L457.935 163.669L456.19 164.374ZM466.333 175.586C465.626 175.872 464.897 176.016 464.146 176.019C463.396 176.021 462.709 175.888 462.085 175.617C461.411 175.32 460.808 174.883 460.274 174.308C459.751 173.736 459.309 173.004 458.949 172.113C458.614 171.284 458.379 170.449 458.245 169.609C458.105 168.771 458.05 168.038 458.081 167.408L460.233 166.539L460.291 166.681C460.163 167.382 460.124 168.157 460.174 169.007C460.232 169.854 460.406 170.638 460.697 171.359C460.893 171.842 461.149 172.281 461.466 172.675C461.786 173.076 462.188 173.384 462.671 173.6C463.084 173.782 463.525 173.864 463.994 173.849C464.465 173.841 464.97 173.728 465.507 173.511C466.031 173.299 466.436 173.029 466.722 172.7C467.011 172.377 467.2 172.012 467.288 171.604C467.404 171.146 467.41 170.641 467.306 170.09C467.211 169.543 467.037 168.956 466.785 168.33C466.543 167.732 466.268 167.17 465.961 166.645C465.657 166.127 465.383 165.684 465.139 165.316L472.965 162.154L476.658 171.296L474.873 172.017L471.975 164.845L467.935 166.477C468.08 166.759 468.221 167.05 468.359 167.35C468.496 167.651 468.61 167.913 468.701 168.138C469.033 168.961 469.253 169.711 469.36 170.387C469.474 171.061 469.459 171.728 469.314 172.388C469.16 173.083 468.847 173.7 468.376 174.239C467.905 174.777 467.224 175.226 466.333 175.586Z" fill="white"/>
<path d="M44.2439 168.891L40.0889 179.176L37.9565 178.314C37.6329 177.353 37.3093 176.391 36.9856 175.43C36.6648 174.462 36.3267 173.546 35.9714 172.682C35.2338 170.865 34.5919 169.565 34.0456 168.783C33.4925 167.997 32.7841 167.43 31.9202 167.081C31.1312 166.763 30.4098 166.776 29.7561 167.121C29.0984 167.456 28.5812 168.09 28.2047 169.022C27.9547 169.641 27.7928 170.355 27.7192 171.164C27.6456 171.973 27.6945 172.811 27.8658 173.68L27.8246 173.782L25.682 172.916C25.6391 172.337 25.6811 171.606 25.8081 170.724C25.9379 169.835 26.1552 169.013 26.4603 168.258C27.0896 166.7 27.9603 165.632 29.0726 165.053C30.178 164.471 31.3735 164.439 32.6591 164.959C33.2372 165.192 33.7478 165.486 34.1907 165.839C34.6295 166.182 35.0156 166.587 35.3492 167.054C35.6637 167.49 35.9522 167.971 36.2147 168.496C36.4799 169.014 36.7577 169.629 37.0482 170.34C37.4683 171.356 37.8585 172.388 38.2186 173.436C38.5719 174.48 38.8982 175.455 39.1975 176.359L42.4992 168.187L44.2439 168.891ZM41.0934 152.19C42.4197 152.726 43.5618 153.365 44.5197 154.108C45.4802 154.844 46.2178 155.673 46.7323 156.593C47.2576 157.525 47.5429 158.542 47.5882 159.644C47.6334 160.747 47.4018 161.927 46.8934 163.185C46.7505 163.539 46.5955 163.864 46.4283 164.16C46.2679 164.459 46.0974 164.715 45.9168 164.927L43.9681 164.14L44.0093 164.038C44.191 163.881 44.4023 163.642 44.6432 163.32C44.8773 162.996 45.0836 162.612 45.2622 162.17C45.8695 160.667 45.896 159.309 45.3417 158.096C44.7833 156.873 43.7391 155.874 42.2092 155.097C42.3346 155.884 42.3662 156.589 42.3041 157.213C42.242 157.836 42.0777 158.478 41.8111 159.138C41.5583 159.764 41.2677 160.307 40.9391 160.768C40.6133 161.222 40.1705 161.632 39.6107 161.999C38.954 162.43 38.2441 162.67 37.4811 162.717C36.7208 162.758 35.8951 162.599 35.0041 162.239C33.4533 161.612 32.3976 160.592 31.8371 159.179C31.2767 157.766 31.2932 156.325 31.8868 154.855C32.1836 154.121 32.574 153.487 33.0581 152.955C33.5354 152.42 34.0967 152.01 34.742 151.724C35.5401 151.374 36.4479 151.223 37.4654 151.27C38.476 151.314 39.6854 151.621 41.0934 152.19ZM39.822 154.074C38.7677 153.648 37.8769 153.414 37.1496 153.374C36.4223 153.333 35.8048 153.432 35.2972 153.67C34.862 153.866 34.5056 154.121 34.2279 154.436C33.9435 154.749 33.7147 155.119 33.5416 155.548C33.1459 156.527 33.1387 157.426 33.52 158.245C33.9041 159.057 34.6505 159.687 35.7592 160.135C36.4054 160.396 36.9696 160.517 37.452 160.498C37.9343 160.479 38.4164 160.314 38.8984 160.002C39.2329 159.782 39.5117 159.503 39.735 159.166C39.9514 158.826 40.1503 158.431 40.3316 157.982C40.546 157.452 40.6916 156.886 40.7686 156.284C40.8456 155.682 40.8443 155.088 40.7646 154.502C40.6245 154.437 40.4878 154.374 40.3545 154.312C40.2171 154.241 40.0396 154.162 39.822 154.074Z" fill="white"/>
<path d="M108.473 79.92L101.582 85.5011L100.529 84.2014L103.18 82.0548L96.2695 73.5212L93.6188 75.6678L92.6771 74.5049C93.0362 74.214 93.3979 73.8739 93.7622 73.4846C94.1218 73.0895 94.3609 72.7495 94.4795 72.4647C94.6263 72.1099 94.6861 71.7641 94.6589 71.4275C94.6328 71.0805 94.4811 70.7125 94.2039 70.3236L95.5292 69.2503L104.822 80.7253L107.421 78.6203L108.473 79.92ZM120.333 70.3158L111.714 77.2956L110.267 75.5085C110.45 74.5108 110.633 73.513 110.816 72.5153C111.005 71.5129 111.153 70.548 111.261 69.6206C111.497 67.674 111.566 66.2261 111.467 65.277C111.364 64.3222 111.02 63.4828 110.433 62.7589C109.898 62.0976 109.261 61.7594 108.522 61.7444C107.784 61.719 107.024 62.0225 106.243 62.6549C105.725 63.075 105.237 63.6209 104.781 64.2927C104.324 64.9644 103.96 65.7215 103.689 66.564L103.604 66.6332L102.15 64.8376C102.393 64.3103 102.784 63.6916 103.322 62.9816C103.867 62.267 104.456 61.6534 105.088 61.141C106.394 60.0839 107.673 59.5716 108.927 59.6043C110.175 59.6312 111.236 60.1834 112.108 61.2608C112.501 61.7453 112.805 62.2493 113.021 62.7727C113.239 63.2857 113.38 63.8273 113.445 64.3974C113.509 64.9309 113.528 65.491 113.503 66.0777C113.484 66.6598 113.429 67.332 113.338 68.0943C113.213 69.1868 113.054 70.2784 112.861 71.369C112.664 72.4539 112.477 73.4642 112.3 74.4001L119.149 68.8536L120.333 70.3158Z" fill="white"/>
<path d="M337.725 460.716C337.149 459.423 337.176 458.122 337.806 456.814C338.429 455.508 339.505 454.516 341.033 453.835C342.655 453.113 344.135 452.956 345.473 453.365C346.804 453.776 347.76 454.635 348.342 455.941C348.712 456.772 348.805 457.63 348.621 458.515C348.44 459.407 347.998 460.246 347.296 461.032L347.323 461.093C348.318 461.163 349.123 461.367 349.739 461.703C350.348 462.043 350.822 462.594 351.162 463.358C351.663 464.484 351.619 465.628 351.028 466.791C350.437 467.953 349.428 468.852 348.001 469.487C346.506 470.153 345.154 470.325 343.943 470.005C342.733 469.684 341.881 468.971 341.389 467.866C341.088 467.189 341.002 466.428 341.132 465.583C341.265 464.745 341.658 463.96 342.311 463.227L342.284 463.167C341.167 463.183 340.229 463.006 339.471 462.637C338.712 462.268 338.13 461.628 337.725 460.716ZM343.36 466.964C343.68 467.681 344.211 468.127 344.955 468.301C345.696 468.486 346.495 468.387 347.353 468.005C348.197 467.629 348.801 467.119 349.165 466.476C349.522 465.835 349.549 465.173 349.244 464.489C349.03 464.006 348.709 463.647 348.283 463.411C347.853 463.185 347.302 463.057 346.63 463.027C346.329 463.017 345.903 463.017 345.354 463.029C344.799 463.043 344.272 463.085 343.773 463.155C343.306 463.893 343.051 464.556 343.008 465.145C342.966 465.734 343.083 466.341 343.36 466.964ZM339.71 459.603C339.985 460.22 340.342 460.651 340.78 460.898C341.215 461.154 341.912 461.293 342.87 461.317C343.25 461.324 343.657 461.307 344.089 461.268C344.521 461.228 345.099 461.183 345.824 461.134C346.281 460.537 346.568 459.875 346.686 459.148C346.797 458.424 346.695 457.707 346.379 456.996C345.976 456.091 345.332 455.483 344.446 455.171C343.56 454.858 342.638 454.916 341.68 455.342C340.701 455.778 340.032 456.377 339.673 457.139C339.307 457.904 339.32 458.726 339.71 459.603Z" fill="white"/>
<path d="M355.04 53.9729L347.283 49.6732L348.094 48.2104L351.078 49.8641L356.401 40.2595L353.418 38.6058L354.144 37.297C354.548 37.521 354.999 37.729 355.496 37.9209C355.997 38.1064 356.402 38.2008 356.71 38.2041C357.094 38.2073 357.437 38.1332 357.739 37.9818C358.051 37.8277 358.336 37.5492 358.592 37.1463L360.084 37.9732L352.925 50.8883L355.851 52.5101L355.04 53.9729ZM372.818 53.3351C372.124 54.5862 371.351 55.6418 370.496 56.5019C369.649 57.3655 368.737 57.9966 367.761 58.3951C366.772 58.8028 365.728 58.962 364.628 58.8725C363.529 58.7831 362.385 58.4094 361.199 57.7515C360.865 57.5665 360.561 57.373 360.287 57.1709C360.01 56.9753 359.777 56.7749 359.589 56.5699L360.608 54.7318L360.704 54.7851C360.837 54.9845 361.048 55.2233 361.339 55.5016C361.632 55.7735 361.988 56.0251 362.405 56.2562C363.823 57.0422 365.167 57.234 366.439 56.8317C367.72 56.4265 368.839 55.512 369.796 54.0882C369 54.1168 368.297 54.0622 367.685 53.9246C367.074 53.7869 366.457 53.5456 365.835 53.2006C365.244 52.8734 364.741 52.5187 364.323 52.1365C363.913 51.7579 363.559 51.2684 363.263 50.668C362.915 49.9637 362.764 49.2299 362.81 48.4668C362.862 47.7072 363.121 46.9072 363.587 46.0667C364.397 44.6039 365.538 43.6805 367.009 43.2965C368.48 42.9125 369.909 43.1046 371.294 43.8728C371.987 44.2569 372.568 44.7216 373.038 45.2669C373.511 45.8058 373.849 46.4129 374.054 47.0882C374.304 47.923 374.344 48.8424 374.173 49.8465C374.006 50.8441 373.554 52.007 372.818 53.3351ZM371.103 51.8437C371.654 50.8492 371.995 49.9935 372.124 49.2766C372.253 48.5597 372.23 47.9349 372.056 47.4021C371.914 46.9463 371.704 46.5613 371.425 46.2474C371.15 45.927 370.81 45.6548 370.406 45.4308C369.482 44.9187 368.59 44.8019 367.731 45.0806C366.879 45.3629 366.163 46.0269 365.583 47.0727C365.245 47.6822 365.056 48.2274 365.016 48.7084C364.976 49.1894 365.081 49.688 365.332 50.2043C365.51 50.5633 365.753 50.874 366.06 51.1367C366.371 51.3929 366.738 51.6383 367.162 51.8731C367.662 52.1505 368.206 52.364 368.794 52.5138C369.382 52.6636 369.972 52.7347 370.563 52.727C370.644 52.5958 370.724 52.4678 370.801 52.3431C370.889 52.2154 370.989 52.049 371.103 51.8437Z" fill="white"/>
<path d="M31.9782 320.289C32.1769 319.86 32.471 319.467 32.8605 319.11C33.25 318.753 33.8061 318.465 34.5286 318.244C35.2442 318.025 35.9398 317.954 36.6155 318.031C37.2911 318.108 37.9218 318.315 38.5075 318.649C39.1594 319.025 39.714 319.535 40.1714 320.177C40.6195 320.815 40.9733 321.558 41.2329 322.407C41.4989 323.277 41.6553 324.165 41.7023 325.071C41.7562 325.975 41.743 326.735 41.6626 327.35L39.4633 328.023L39.4151 327.865C39.6256 327.149 39.7373 326.347 39.7502 325.461C39.7631 324.575 39.6548 323.757 39.4253 323.006C39.2902 322.564 39.0728 322.117 38.7732 321.664C38.4736 321.21 38.1327 320.874 37.7507 320.653C37.3434 320.425 36.9302 320.29 36.5112 320.249C36.0901 320.202 35.5954 320.265 35.0271 320.439C34.4659 320.61 34.0308 320.843 33.7218 321.137C33.4036 321.426 33.1875 321.76 33.0736 322.141C32.9526 322.523 32.9222 322.95 32.9823 323.423C33.0354 323.897 33.1413 324.394 33.3001 324.913L33.5896 325.861L31.8428 326.395L31.6176 325.658C31.2916 324.592 30.811 323.81 30.176 323.314C29.5319 322.813 28.7818 322.693 27.926 322.955C27.5471 323.071 27.2421 323.252 27.0108 323.5C26.7725 323.749 26.6062 324.045 26.5117 324.389C26.4215 324.746 26.3939 325.107 26.4289 325.473C26.4638 325.838 26.5478 326.238 26.6808 326.673C26.8846 327.339 27.2205 328.011 27.6885 328.689C28.1565 329.367 28.7099 329.972 29.3486 330.506L29.3808 330.611L27.1815 331.283C26.7837 330.86 26.3565 330.266 25.8999 329.501C25.4342 328.73 25.0823 327.955 24.8442 327.177C24.6104 326.412 24.4747 325.717 24.4369 325.092C24.3992 324.467 24.4628 323.872 24.6278 323.308C24.8101 322.7 25.1001 322.193 25.4977 321.787C25.8954 321.382 26.4135 321.082 27.0518 320.886C27.9217 320.62 28.7773 320.696 29.6185 321.114C30.4505 321.527 31.0783 322.125 31.5019 322.909L31.6492 322.864C31.6024 322.51 31.6037 322.088 31.6531 321.597C31.6955 321.108 31.8039 320.672 31.9782 320.289ZM35.186 303.797L37.7793 312.279L36.1798 312.768L35.1824 309.506L24.6805 312.717L25.6779 315.979L24.2468 316.417C24.1117 315.975 23.9318 315.512 23.7072 315.028C23.4756 314.547 23.25 314.197 23.0303 313.981C22.7562 313.712 22.458 313.527 22.1357 313.426C21.8042 313.32 21.4061 313.323 20.9416 313.434L20.4429 311.803L34.5647 307.485L33.5865 304.286L35.186 303.797Z" fill="white"/>
<path d="M33.302 206.057L31.4582 214.731L29.8223 214.383L30.5315 211.047L19.7907 208.764L19.0816 212.1L17.6179 211.789C17.714 211.337 17.7811 210.845 17.8191 210.313C17.85 209.78 17.8219 209.365 17.7348 209.069C17.6256 208.701 17.4545 208.395 17.2215 208.15C16.9829 207.897 16.6334 207.707 16.1731 207.579L16.5277 205.911L30.9707 208.981L31.6661 205.709L33.302 206.057ZM32.0336 190.062C33.4183 190.356 34.4547 191.143 35.1428 192.421C35.8325 193.693 36.0034 195.146 35.6557 196.782C35.2867 198.518 34.5439 199.808 33.4275 200.65C32.3125 201.486 31.0555 201.755 29.6564 201.457C28.7667 201.268 28.0181 200.839 27.4104 200.17C26.7955 199.499 26.3763 198.649 26.1528 197.619L26.0882 197.606C25.446 198.369 24.808 198.901 24.1743 199.201C23.5421 199.494 22.817 199.554 21.9991 199.38C20.7937 199.124 19.8945 198.415 19.3013 197.254C18.7082 196.093 18.5741 194.749 18.8989 193.22C19.239 191.62 19.8943 190.425 20.8648 189.634C21.8353 188.843 22.9125 188.573 24.0964 188.825C24.821 188.979 25.4869 189.356 26.094 189.958C26.6938 190.558 27.0981 191.337 27.3066 192.297L27.3712 192.31C28.0152 191.397 28.7093 190.742 29.4536 190.346C30.1978 189.949 31.0578 189.854 32.0336 190.062ZM23.6673 190.949C22.8996 190.786 22.2264 190.954 21.6478 191.454C21.0636 191.944 20.6738 192.649 20.4786 193.567C20.2865 194.471 20.3439 195.26 20.6509 195.932C20.9594 196.598 21.4795 197.008 22.2113 197.164C22.7279 197.274 23.2069 197.226 23.6481 197.019C24.0838 196.805 24.5112 196.434 24.9304 195.908C25.116 195.67 25.3654 195.326 25.6787 194.875C25.9935 194.417 26.2694 193.966 26.5064 193.521C26.1838 192.71 25.7968 192.114 25.3453 191.733C24.8939 191.352 24.3345 191.091 23.6673 190.949ZM31.7668 192.322C31.1067 192.182 30.5481 192.217 30.091 192.427C29.6282 192.629 29.1059 193.11 28.5242 193.871C28.2947 194.175 28.069 194.513 27.8473 194.886C27.6256 195.259 27.3218 195.753 26.9361 196.368C27.1504 197.089 27.517 197.711 28.0358 198.233C28.5561 198.749 29.1965 199.087 29.9571 199.249C30.9257 199.455 31.7966 199.291 32.5698 198.758C33.343 198.225 33.8387 197.446 34.0567 196.42C34.2794 195.372 34.188 194.479 33.7826 193.741C33.3786 192.995 32.7067 192.522 31.7668 192.322Z" fill="white"/>
<path d="M473.632 285.597C471.98 285.394 470.696 284.682 469.782 283.462C468.874 282.249 468.517 280.853 468.711 279.273C468.809 278.472 469.023 277.759 469.351 277.134C469.679 276.509 470.117 275.976 470.667 275.533C471.348 274.981 472.208 274.596 473.248 274.376C474.287 274.163 475.508 274.144 476.914 274.316C478.355 274.493 479.614 274.803 480.69 275.246C481.766 275.696 482.695 276.312 483.478 277.096C484.222 277.837 484.762 278.742 485.096 279.811C485.438 280.88 485.526 282.088 485.36 283.435C485.308 283.865 485.245 284.223 485.173 284.509C485.101 284.796 484.999 285.083 484.868 285.37L482.782 285.114L482.795 285.004C482.93 284.814 483.069 284.517 483.215 284.114C483.367 283.719 483.469 283.306 483.522 282.877C483.714 281.311 483.376 280.002 482.508 278.95C481.647 277.898 480.392 277.193 478.744 276.836C479.04 277.493 479.246 278.128 479.363 278.741C479.486 279.362 479.5 280.062 479.405 280.841C479.32 281.533 479.179 282.133 478.984 282.641C478.795 283.157 478.473 283.668 478.02 284.174C477.497 284.76 476.877 285.172 476.161 285.409C475.443 285.653 474.601 285.716 473.632 285.597ZM473.817 283.37C474.494 283.453 475.067 283.42 475.537 283.27C476.005 283.128 476.431 282.848 476.815 282.43C477.089 282.123 477.288 281.771 477.41 281.372C477.533 280.973 477.622 280.552 477.677 280.108C477.753 279.489 477.75 278.905 477.67 278.356C477.59 277.806 477.431 277.232 477.194 276.634C477.036 276.6 476.881 276.57 476.729 276.544C476.584 276.519 476.399 276.492 476.173 276.464C475.023 276.323 474.098 276.328 473.4 276.479C472.708 276.637 472.143 276.901 471.707 277.268C471.345 277.564 471.064 277.895 470.864 278.262C470.67 278.638 470.545 279.055 470.489 279.513C470.359 280.569 470.577 281.438 471.144 282.121C471.718 282.805 472.609 283.221 473.817 283.37Z" fill="white"/>
<path d="M413.17 102.215L405.892 93.8438L407.628 92.3349C408.632 92.483 409.635 92.6311 410.639 92.7793C411.647 92.933 412.617 93.0475 413.548 93.123C415.502 93.2908 416.951 93.3089 417.896 93.1773C418.847 93.041 419.674 92.6671 420.377 92.0559C421.019 91.4975 421.335 90.8488 421.324 90.1096C421.324 89.3711 420.994 88.6227 420.335 87.8642C419.897 87.3603 419.334 86.892 418.647 86.4591C417.959 86.0263 417.19 85.6891 416.338 85.4476L416.266 85.3645L418.01 83.8484C418.546 84.073 419.178 84.4422 419.906 84.9559C420.639 85.4752 421.273 86.0421 421.807 86.6567C422.91 87.9245 423.466 89.1855 423.477 90.4395C423.494 91.6887 422.979 92.7681 421.933 93.6778C421.462 94.087 420.969 94.4087 420.454 94.6431C419.948 94.8782 419.412 95.0383 418.844 95.1234C418.314 95.2059 417.754 95.2449 417.167 95.2402C416.585 95.2411 415.911 95.2096 415.146 95.1457C414.049 95.0587 412.953 94.9379 411.856 94.7832C410.765 94.6237 409.748 94.4721 408.807 94.3283L414.59 100.98L413.17 102.215ZM421.956 112.322L416.137 105.628L417.399 104.531L419.637 107.105L427.925 99.9L425.687 97.3255L426.817 96.3436C427.12 96.6924 427.472 97.0421 427.874 97.3926C428.282 97.7383 428.63 97.9654 428.919 98.074C429.279 98.2083 429.626 98.256 429.962 98.2171C430.308 98.1789 430.67 98.0144 431.049 97.7237L432.168 99.0109L421.023 108.7L423.218 111.225L421.956 112.322Z" fill="white"/>
<path d="M122.901 440.918C122.786 440.459 122.767 439.969 122.845 439.446C122.923 438.924 123.174 438.349 123.596 437.723C124.015 437.103 124.511 436.61 125.084 436.245C125.658 435.88 126.278 435.643 126.944 435.535C127.687 435.417 128.438 435.464 129.198 435.675C129.948 435.889 130.69 436.244 131.426 436.74C132.18 437.249 132.861 437.841 133.467 438.515C134.078 439.184 134.546 439.783 134.871 440.311L133.585 442.218L133.448 442.125C133.161 441.436 132.743 440.743 132.196 440.046C131.648 439.35 131.049 438.782 130.398 438.343C130.015 438.085 129.565 437.874 129.047 437.71C128.529 437.546 128.052 437.499 127.616 437.568C127.156 437.647 126.75 437.802 126.399 438.034C126.042 438.262 125.697 438.623 125.365 439.115C125.037 439.602 124.845 440.056 124.79 440.479C124.724 440.904 124.767 441.3 124.918 441.667C125.064 442.04 125.309 442.391 125.653 442.721C125.993 443.056 126.388 443.376 126.838 443.68L127.659 444.233L126.638 445.748L125.999 445.317C125.075 444.693 124.21 444.389 123.404 444.402C122.588 444.418 121.93 444.797 121.43 445.539C121.208 445.868 121.085 446.201 121.061 446.538C121.033 446.882 121.09 447.217 121.233 447.543C121.387 447.878 121.593 448.176 121.85 448.438C122.107 448.699 122.424 448.958 122.801 449.212C123.379 449.602 124.063 449.912 124.853 450.145C125.643 450.377 126.454 450.499 127.286 450.512L127.378 450.573L126.092 452.48C125.516 452.402 124.81 452.208 123.974 451.901C123.127 451.595 122.366 451.215 121.691 450.759C121.028 450.312 120.486 449.857 120.063 449.395C119.64 448.933 119.315 448.431 119.088 447.889C118.847 447.301 118.754 446.725 118.808 446.16C118.862 445.594 119.075 445.035 119.449 444.482C119.957 443.728 120.67 443.248 121.587 443.044C122.493 442.841 123.357 442.911 124.18 443.253L124.266 443.125C124.007 442.88 123.742 442.551 123.471 442.138C123.197 441.732 123.007 441.325 122.901 440.918ZM111.025 432.906C110.909 432.448 110.89 431.957 110.969 431.435C111.047 430.912 111.297 430.338 111.72 429.712C112.138 429.091 112.634 428.599 113.208 428.233C113.781 427.868 114.401 427.632 115.067 427.523C115.81 427.405 116.562 427.452 117.321 427.664C118.071 427.877 118.814 428.232 119.55 428.729C120.304 429.237 120.984 429.829 121.591 430.504C122.202 431.172 122.669 431.771 122.994 432.3L121.708 434.206L121.571 434.114C121.284 433.425 120.867 432.732 120.319 432.035C119.771 431.338 119.172 430.77 118.522 430.331C118.138 430.073 117.688 429.862 117.17 429.698C116.652 429.535 116.175 429.488 115.74 429.556C115.279 429.635 114.874 429.791 114.522 430.023C114.165 430.251 113.82 430.611 113.488 431.104C113.16 431.59 112.968 432.045 112.913 432.468C112.848 432.893 112.89 433.289 113.041 433.656C113.187 434.029 113.433 434.38 113.777 434.709C114.117 435.045 114.512 435.364 114.962 435.668L115.783 436.222L114.761 437.736L114.123 437.305C113.198 436.682 112.333 436.377 111.528 436.391C110.712 436.407 110.054 436.786 109.553 437.528C109.332 437.856 109.209 438.189 109.184 438.527C109.156 438.87 109.213 439.205 109.356 439.532C109.511 439.866 109.717 440.164 109.974 440.426C110.231 440.688 110.548 440.946 110.925 441.2C111.502 441.59 112.186 441.901 112.977 442.133C113.767 442.365 114.578 442.488 115.41 442.5L115.501 442.562L114.215 444.468C113.64 444.39 112.934 444.197 112.097 443.889C111.25 443.584 110.49 443.203 109.815 442.748C109.152 442.301 108.609 441.846 108.186 441.384C107.764 440.922 107.439 440.419 107.212 439.877C106.971 439.29 106.877 438.713 106.931 438.148C106.985 437.583 107.199 437.024 107.572 436.47C108.081 435.716 108.793 435.237 109.71 435.032C110.616 434.83 111.481 434.899 112.303 435.242L112.389 435.114C112.13 434.868 111.865 434.539 111.595 434.127C111.32 433.72 111.13 433.314 111.025 432.906Z" fill="white"/>
<path d="M159.517 452.446L167.619 456.053L166.939 457.581L163.822 456.193L159.356 466.226L162.473 467.613L161.864 468.98C161.442 468.792 160.975 468.625 160.462 468.477C159.947 468.336 159.535 468.277 159.228 468.301C158.845 468.331 158.51 468.435 158.222 468.612C157.925 468.793 157.666 469.095 157.445 469.518L155.887 468.825L161.892 455.334L158.836 453.974L159.517 452.446ZM143.191 450.996C143.868 449.475 144.924 448.455 146.359 447.938C147.784 447.424 149.224 447.491 150.678 448.138C151.416 448.466 152.035 448.878 152.537 449.375C153.038 449.871 153.421 450.447 153.683 451.102C154.012 451.914 154.129 452.85 154.036 453.908C153.935 454.964 153.597 456.138 153.021 457.432C152.431 458.759 151.766 459.872 151.028 460.772C150.284 461.669 149.422 462.378 148.444 462.898C147.517 463.393 146.494 463.644 145.375 463.651C144.252 463.665 143.071 463.397 141.831 462.845C141.436 462.669 141.112 462.504 140.858 462.351C140.605 462.198 140.361 462.017 140.125 461.808L140.979 459.888L141.08 459.933C141.223 460.117 141.466 460.337 141.809 460.594C142.143 460.855 142.507 461.074 142.902 461.25C144.343 461.891 145.694 461.951 146.955 461.428C148.212 460.912 149.253 459.917 150.077 458.445C149.362 458.537 148.694 458.548 148.074 458.481C147.443 458.417 146.77 458.226 146.053 457.907C145.416 457.623 144.883 457.314 144.455 456.978C144.016 456.647 143.621 456.19 143.27 455.608C142.862 454.937 142.65 454.224 142.632 453.469C142.608 452.712 142.794 451.887 143.191 450.996ZM145.268 451.824C144.99 452.447 144.854 453.005 144.86 453.497C144.859 453.987 145.002 454.476 145.29 454.966C145.503 455.317 145.782 455.61 146.128 455.844C146.473 456.078 146.85 456.286 147.259 456.468C147.829 456.722 148.388 456.891 148.937 456.974C149.486 457.058 150.081 457.074 150.722 457.022C150.801 456.881 150.876 456.741 150.945 456.604C151.011 456.473 151.091 456.303 151.183 456.095C151.655 455.036 151.92 454.151 151.98 453.439C152.031 452.731 151.944 452.114 151.72 451.589C151.543 451.157 151.308 450.791 151.016 450.492C150.713 450.197 150.351 449.956 149.929 449.768C148.957 449.335 148.062 449.29 147.243 449.632C146.421 449.981 145.763 450.711 145.268 451.824Z" fill="white"/>
<path d="M397.069 78.647L395.18 77.1167L392.279 80.6994L390.637 79.3699L393.538 75.7872L387.442 70.8501L389.034 68.8834L401.015 66.6933L402.589 67.9674L396.288 75.7486L398.177 77.2789L397.069 78.647ZM394.646 74.4191L399.299 68.673L389.712 70.4237L394.646 74.4191Z" fill="white"/>
<path d="M305.479 464.251L316.192 461.38L316.787 463.602C316.214 464.439 315.641 465.276 315.068 466.113C314.488 466.952 313.96 467.773 313.484 468.576C312.477 470.259 311.825 471.553 311.529 472.461C311.235 473.375 311.208 474.282 311.449 475.182C311.669 476.004 312.114 476.572 312.783 476.886C313.447 477.209 314.264 477.241 315.235 476.981C315.88 476.808 316.547 476.508 317.237 476.08C317.928 475.652 318.568 475.108 319.158 474.449L319.265 474.42L319.863 476.652C319.426 477.035 318.817 477.441 318.036 477.871C317.248 478.302 316.461 478.623 315.674 478.834C314.052 479.269 312.674 479.216 311.543 478.676C310.413 478.144 309.668 477.208 309.309 475.869C309.148 475.267 309.075 474.682 309.091 474.116C309.101 473.559 309.192 473.007 309.364 472.46C309.523 471.946 309.733 471.427 309.995 470.901C310.249 470.377 310.573 469.785 310.966 469.126C311.525 468.179 312.114 467.246 312.734 466.328C313.355 465.417 313.937 464.57 314.479 463.787L305.966 466.068L305.479 464.251ZM295.075 475.206C294.653 474.992 294.271 474.685 293.928 474.283C293.585 473.881 293.316 473.316 293.12 472.586C292.926 471.863 292.88 471.166 292.981 470.493C293.082 469.821 293.31 469.197 293.665 468.624C294.063 467.985 294.592 467.449 295.25 467.014C295.903 466.589 296.658 466.261 297.515 466.032C298.394 465.796 299.287 465.671 300.194 465.656C301.099 465.633 301.858 465.673 302.47 465.775L303.065 467.996L302.906 468.039C302.197 467.803 301.4 467.664 300.515 467.62C299.63 467.576 298.808 467.656 298.05 467.859C297.604 467.978 297.149 468.18 296.686 468.464C296.223 468.747 295.874 469.076 295.64 469.45C295.398 469.849 295.249 470.257 295.194 470.675C295.131 471.094 295.177 471.59 295.331 472.164C295.483 472.731 295.7 473.174 295.983 473.493C296.261 473.821 296.588 474.049 296.963 474.176C297.341 474.31 297.767 474.356 298.242 474.312C298.718 474.276 299.218 474.187 299.742 474.047L300.699 473.79L301.172 475.555L300.428 475.754C299.351 476.043 298.553 476.495 298.035 477.113C297.512 477.739 297.366 478.484 297.598 479.349C297.7 479.731 297.871 480.042 298.11 480.282C298.35 480.529 298.641 480.706 298.981 480.812C299.335 480.915 299.695 480.955 300.061 480.933C300.427 480.911 300.83 480.841 301.269 480.723C301.942 480.543 302.626 480.23 303.319 479.786C304.013 479.342 304.637 478.81 305.193 478.191L305.299 478.162L305.894 480.384C305.458 480.766 304.849 481.172 304.068 481.602C303.282 482.04 302.495 482.365 301.709 482.576C300.936 482.783 300.237 482.894 299.611 482.91C298.985 482.926 298.393 482.842 297.835 482.657C297.233 482.454 296.737 482.146 296.346 481.735C295.955 481.323 295.673 480.795 295.5 480.15C295.264 479.271 295.37 478.419 295.817 477.593C296.259 476.776 296.879 476.169 297.676 475.774L297.636 475.625C297.281 475.659 296.859 475.643 296.37 475.577C295.884 475.517 295.452 475.394 295.075 475.206Z" fill="white"/>
<path d="M135.635 50.932C136.096 51.0372 136.542 51.2431 136.972 51.5499C137.402 51.8567 137.8 52.3405 138.166 53.0014C138.529 53.6558 138.743 54.3214 138.808 54.9984C138.873 55.6753 138.802 56.335 138.596 56.9775C138.364 57.6933 137.981 58.3417 137.448 58.9226C136.917 59.4935 136.264 59.9941 135.487 60.4245C134.692 60.8655 133.856 61.2031 132.979 61.4374C132.106 61.6781 131.36 61.8231 130.742 61.8724L129.627 59.861L129.771 59.781C130.516 59.838 131.323 59.7807 132.192 59.6091C133.061 59.4375 133.839 59.1614 134.526 58.7809C134.93 58.5568 135.323 58.2512 135.703 57.864C136.084 57.4767 136.343 57.0733 136.479 56.6538C136.618 56.2079 136.664 55.7758 136.616 55.3575C136.575 54.9357 136.411 54.4649 136.123 53.9453C135.838 53.432 135.52 53.0548 135.169 52.8136C134.82 52.5625 134.448 52.4207 134.052 52.3883C133.653 52.3494 133.229 52.4085 132.779 52.5655C132.326 52.7162 131.862 52.9231 131.387 53.1862L130.521 53.6663L129.635 52.0688L130.309 51.6954C131.284 51.1548 131.948 50.5224 132.302 49.7981C132.658 49.0639 132.619 48.3054 132.185 47.5226C131.993 47.1762 131.752 46.9155 131.463 46.7407C131.169 46.5594 130.845 46.4583 130.489 46.4373C130.121 46.4234 129.762 46.4715 129.412 46.5816C129.062 46.6917 128.688 46.857 128.29 47.0775C127.681 47.4154 127.093 47.8837 126.528 48.4823C125.962 49.081 125.485 49.7482 125.096 50.4838L125 50.5372L123.885 48.5258C124.216 48.0487 124.708 47.5073 125.362 46.9016C126.019 46.2859 126.703 45.7807 127.416 45.386C128.115 44.9983 128.766 44.721 129.37 44.5542C129.974 44.3873 130.569 44.3259 131.155 44.3699C131.788 44.4218 132.344 44.6001 132.823 44.9048C133.302 45.2095 133.703 45.6538 134.027 46.2376C134.468 47.0332 134.572 47.8858 134.338 48.7954C134.107 49.6951 133.652 50.4335 132.974 51.0107L133.049 51.1454C133.385 51.026 133.798 50.9395 134.289 50.8858C134.775 50.8257 135.224 50.8411 135.635 50.932ZM150.612 45.6997C150.982 46.3669 151.214 47.0729 151.308 47.8175C151.402 48.5622 151.353 49.2604 151.161 49.9122C150.948 50.6173 150.588 51.2696 150.081 51.8691C149.578 52.4586 148.906 52.9862 148.065 53.4521C147.283 53.886 146.483 54.2205 145.665 54.4555C144.851 54.697 144.13 54.841 143.502 54.8874L142.376 52.8568L142.511 52.7821C143.222 52.8241 143.996 52.7682 144.833 52.6144C145.667 52.4541 146.424 52.1855 147.104 51.8085C147.56 51.556 147.963 51.2483 148.316 50.8852C148.675 50.5186 148.932 50.0825 149.088 49.5767C149.217 49.1444 149.246 48.6966 149.173 48.2334C149.107 47.7667 148.934 47.2799 148.653 46.773C148.379 46.279 148.062 45.91 147.7 45.6659C147.345 45.4184 146.959 45.2755 146.544 45.2374C146.075 45.1785 145.573 45.2343 145.039 45.4048C144.507 45.5653 143.946 45.8092 143.356 46.1364C142.791 46.4493 142.267 46.7901 141.784 47.1587C141.307 47.5238 140.901 47.8497 140.565 48.1365L136.473 40.7551L145.096 35.9753L146.03 37.6594L139.264 41.4097L141.377 45.2207C141.638 45.0421 141.91 44.8664 142.191 44.6935C142.473 44.5206 142.72 44.3755 142.931 44.2582C143.708 43.8278 144.425 43.5182 145.084 43.3293C145.739 43.134 146.402 43.068 147.075 43.1314C147.784 43.1997 148.434 43.4347 149.026 43.8364C149.617 44.2381 150.146 44.8592 150.612 45.6997Z" fill="white"/>
<path d="M54.209 349.953L58.2355 357.856L56.7452 358.615L55.1966 355.576L45.4118 360.562L46.9605 363.601L45.6271 364.28C45.4173 363.869 45.1598 363.444 44.8546 363.007C44.543 362.573 44.2601 362.268 44.0062 362.093C43.6896 361.876 43.3638 361.745 43.0288 361.702C42.684 361.655 42.2925 361.727 41.8543 361.917L41.08 360.398L54.2374 353.693L52.7187 350.713L54.209 349.953ZM43.0022 338.115L44.1062 340.281L48.2142 338.188L49.1734 340.071L45.0654 342.164L48.6273 349.154L46.3723 350.303L34.5348 347.431L33.6156 345.627L42.5375 341.081L41.4335 338.914L43.0022 338.115ZM43.4967 342.963L36.9082 346.32L46.3792 348.62L43.4967 342.963Z" fill="white"/>
<path d="M440.13 139.716L434.253 130.311L436.203 129.092C437.171 129.396 438.139 129.699 439.107 130.002C440.079 130.312 441.018 130.577 441.926 130.797C443.829 131.268 445.258 131.513 446.212 131.531C447.172 131.545 448.047 131.305 448.837 130.811C449.559 130.36 449.972 129.769 450.077 129.038C450.192 128.308 449.983 127.517 449.451 126.665C449.097 126.099 448.615 125.549 448.004 125.014C447.393 124.479 446.686 124.025 445.882 123.654L445.824 123.56L447.784 122.336C448.277 122.641 448.844 123.105 449.483 123.726C450.126 124.354 450.663 125.013 451.094 125.703C451.984 127.128 452.337 128.46 452.152 129.7C451.973 130.936 451.296 131.922 450.12 132.657C449.591 132.987 449.054 133.228 448.508 133.378C447.972 133.531 447.418 133.606 446.844 133.601C446.306 133.599 445.748 133.55 445.169 133.454C444.594 133.364 443.933 133.227 443.187 133.044C442.118 132.787 441.054 132.496 439.995 132.172C438.943 131.843 437.963 131.535 437.055 131.245L441.726 138.719L440.13 139.716Z" fill="white"/>
<rect x="40" y="40" width="420" height="420" rx="210" fill="white"/>
</g>
<defs>
<clipPath id="clip0_409_47">
<rect width="500" height="500" fill="white"/>
</clipPath>
</defs>
</svg>
